<?xml version="1.0" encoding="utf-8"?>
<!-- Generator: Adobe Illustrator 25.0.0, SVG Export Plug-In . SVG Version: 6.00 Build 0)  -->
<svg version="1.1" id="레이어_1" xmlns="http://www.w3.org/2000/svg" xmlns:xlink="http://www.w3.org/1999/xlink" x="0px"
	 y="0px" viewBox="0 0 500 500" style="enable-background:new 0 0 500 500;" xml:space="preserve">
<style type="text/css">
	.st0{fill:#DC5354;}
</style>
<g>
	<path class="st0" d="M58.02,100.98h70.58c18.64,0,33.75,16.17,33.75,36.12v75.51c0,19.95-15.11,36.11-33.75,36.11H58.02
		c-18.64,0-33.76-16.17-33.76-36.11V137.1C24.26,117.15,39.37,100.98,58.02,100.98z"/>
	<path class="st0" d="M58.02,274.99h70.58c18.64,0,33.75,16.17,33.75,36.11v75.52c0,19.95-15.11,36.11-33.75,36.11H58.02
		c-18.64,0-33.76-16.17-33.76-36.11V311.1C24.26,291.16,39.37,274.99,58.02,274.99z"/>
	<path class="st0" d="M217.59,100.98h73.65c18.64,0,33.75,16.17,33.75,36.12v75.51c0,19.95-15.11,36.11-33.75,36.11h-73.65
		c-18.64,0-33.76-16.17-33.76-36.11V137.1C183.83,117.15,198.95,100.98,217.59,100.98z"/>
	<path class="st0" d="M380.24,100.98h70.58c18.65,0,33.76,16.17,33.76,36.12v75.51c0,19.95-15.11,36.11-33.76,36.11h-70.58
		c-18.64,0-33.76-16.17-33.76-36.11V137.1C346.48,117.15,361.59,100.98,380.24,100.98z"/>
	<path class="st0" d="M217.59,274.99h73.65c18.64,0,33.75,16.17,33.75,36.11v75.52c0,19.95-15.11,36.11-33.75,36.11h-73.65
		c-18.64,0-33.76-16.17-33.76-36.11V311.1C183.83,291.16,198.95,274.99,217.59,274.99z"/>
	<path class="st0" d="M380.24,274.99h70.58c18.65,0,33.76,16.17,33.76,36.11v75.52c0,19.95-15.11,36.11-33.76,36.11h-70.58
		c-18.64,0-33.76-16.17-33.76-36.11V311.1C346.48,291.16,361.59,274.99,380.24,274.99z"/>
</g>
</svg>
