<svg id="Layer_1" data-name="Layer 1" xmlns="http://www.w3.org/2000/svg" viewBox="0 0 286 52">
  <defs>
    <style>
      .cls-1, .cls-3 {
        fill: #DC5354;
      }

      .cls-1 {
        fill-rule: evenodd;
      }

      .cls-2 {
        fill: #1e3b5b;
      }
    </style>
  </defs>
  <g>
    <g>
      <path class="cls-1" d="M74,36.1A10.1,10.1,0,1,0,63.9,26,10.1,10.1,0,0,0,74,36.1Z"/>
      <path class="cls-1" d="M25.1,41.9A15.9,15.9,0,1,1,38.9,18l7.3-4.2a24.4,24.4,0,1,0,0,24.4L38.9,34a16,16,0,0,1-13.8,7.9Z"/>
      <path class="cls-1" d="M33.3,31.9c4.6-6.5,15.1-4.4,17.8,2.8a24.4,24.4,0,1,0,0-17.4,10.3,10.3,0,0,1-18,2.6,10.1,10.1,0,1,0-8,16.2,10.4,10.4,0,0,0,8.2-4.2ZM74,41.9A15.9,15.9,0,1,1,89.9,26,15.9,15.9,0,0,1,74,41.9Z"/>
    </g>
    <rect class="cls-2" x="109.9" y="0.3" width="1" height="51.4"/>
    <path class="cls-3" d="M154.2,26q0-6.5,3.6-10.2T168,12.2q6.6,0,10.2,3.6c2.5,2.3,3.7,5.7,3.7,10a17.2,17.2,0,0,1-1.6,7.7,12.2,12.2,0,0,1-4.6,4.7,15,15,0,0,1-7.4,1.6,18.2,18.2,0,0,1-7.5-1.4,11.2,11.2,0,0,1-4.8-4.6A15.5,15.5,0,0,1,154.2,26Zm8.2.1c0,2.7.5,4.6,1.5,5.8a5,5,0,0,0,4.1,1.7,4.8,4.8,0,0,0,4.1-1.7c1-1.1,1.5-3.2,1.5-6.2s-.5-4.4-1.5-5.5a5.2,5.2,0,0,0-4.2-1.8,5,5,0,0,0-4,1.8C162.9,21.4,162.4,23.3,162.4,26.1Z"/>
    <path class="cls-3" d="M190.1,12.6h7.7l10.1,14.8V12.6h7.8V39.4h-7.8l-10-14.7V39.4h-7.8Z"/>
    <path class="cls-3" d="M242.3,12.4h8.2V28.3a13.3,13.3,0,0,1-.7,4.5,11,11,0,0,1-2.3,3.7,10.6,10.6,0,0,1-3.3,2.2,16.8,16.8,0,0,1-5.8.9l-4.3-.3a10,10,0,0,1-3.8-1.1,8.9,8.9,0,0,1-2.9-2.3,9.2,9.2,0,0,1-1.7-3,17.1,17.1,0,0,1-.8-4.6V12.4h8.3V28.7a4.3,4.3,0,0,0,4.5,4.7,4.2,4.2,0,0,0,3.4-1.3,4.5,4.5,0,0,0,1.2-3.4Z"/>
    <path class="cls-3" d="M259.8,12.6h7.7l10.1,14.8V12.6h7.8V39.4h-7.8l-10-14.7V39.4h-7.8Z"/>
    <g>
      <path class="cls-3" d="M140.2,28.4a7.9,7.9,0,0,1-1.8,3.9,4.5,4.5,0,0,1-3.5,1.3,4.5,4.5,0,0,1-3.8-1.6c-.9-1.1-1.4-3.2-1.4-6.1a14.5,14.5,0,0,1,.3-3.2h-8.3a16.6,16.6,0,0,0-.3,3.2,15.3,15.3,0,0,0,2,8.2,12.7,12.7,0,0,0,4.8,4.5,18.1,18.1,0,0,0,7.1,1.2,15.1,15.1,0,0,0,6-1,9.5,9.5,0,0,0,3.8-3.1,11.9,11.9,0,0,0,2.3-5.1Z"/>
      <path class="cls-3" d="M135.2,18.4a4.2,4.2,0,0,1,2.2.5,4.6,4.6,0,0,1,1.7,1.4,7.8,7.8,0,0,1,.8,1.8l7.3-1.6a12.3,12.3,0,0,0-4.3-6.3,14,14,0,0,0-7.9-2h-1.2v6.3Z"/>
    </g>
  </g>
</svg>
