<?xml version="1.0" encoding="utf-8"?>
<!-- Generator: Adobe Illustrator 24.3.0, SVG Export Plug-In . SVG Version: 6.00 Build 0)  -->
<svg version="1.1" id="Layer_1" xmlns="http://www.w3.org/2000/svg" xmlns:xlink="http://www.w3.org/1999/xlink" x="0px" y="0px"
	 viewBox="0 0 265.9 165.3" style="enable-background:new 0 0 265.9 165.3;" xml:space="preserve">
<style type="text/css">
	.st0{fill:#FFFFFF;}
	.st1{fill-rule:evenodd;clip-rule:evenodd;fill:#FFFFFF;}
</style>
<g>
	<path class="st0" d="M64,126.1c0-6.1,1.7-10.9,5.1-14.3c3.4-3.4,8.1-5.1,14.2-5.1c6.2,0,11,1.7,14.4,5c3.4,3.3,5.1,8,5.1,14
		c0,4.4-0.7,8-2.2,10.8c-1.5,2.8-3.6,5-6.4,6.5c-2.8,1.6-6.2,2.3-10.4,2.3c-4.2,0-7.7-0.7-10.5-2c-2.8-1.3-5-3.5-6.7-6.4
		C64.9,134.1,64,130.5,64,126.1z M75.6,126.1c0,3.8,0.7,6.5,2.1,8.1c1.4,1.6,3.3,2.5,5.7,2.5c2.5,0,4.4-0.8,5.8-2.4
		c1.4-1.6,2-4.5,2-8.7c0-3.5-0.7-6.1-2.1-7.7c-1.4-1.6-3.3-2.4-5.8-2.4c-2.3,0-4.2,0.8-5.6,2.5S75.6,122.3,75.6,126.1z"/>
	<path class="st0" d="M114.3,107.4h10.8l14.1,20.7v-20.7h10.9v37.4h-10.9l-14-20.5v20.5h-10.9V107.4z"/>
	<path class="st0" d="M187.3,107.4h11.5v22.3c0,2.2-0.3,4.3-1,6.3c-0.7,2-1.8,3.7-3.2,5.2c-1.5,1.5-3,2.5-4.6,3.1
		c-2.2,0.8-4.9,1.2-8.1,1.2c-1.8,0-3.8-0.1-6-0.4c-2.2-0.3-4-0.8-5.4-1.5c-1.4-0.8-2.8-1.8-4-3.2c-1.2-1.4-2-2.8-2.5-4.3
		c-0.7-2.4-1.1-4.5-1.1-6.3v-22.3h11.5v22.8c0,2,0.6,3.6,1.7,4.8c1.1,1.1,2.7,1.7,4.7,1.7c2,0,3.6-0.6,4.7-1.7
		c1.1-1.1,1.7-2.7,1.7-4.8V107.4z"/>
	<path class="st0" d="M211.8,107.4h10.8l14.1,20.7v-20.7h10.9v37.4h-10.9l-14-20.5v20.5h-10.9V107.4z"/>
	<g>
		<path class="st0" d="M35.5,115.6c0.6-0.1,1.2-0.2,1.9-0.2c1.2,0,2.2,0.2,3.1,0.7c0.9,0.5,1.7,1.2,2.4,2c0.4,0.5,0.8,1.4,1.1,2.5
			l10.2-2.3c-1.3-3.9-3.3-6.9-6-8.8c-2.7-1.9-6.4-2.9-11.1-2.9c-0.6,0-1.1,0-1.6,0.1V115.6z"/>
		<path class="st0" d="M44.5,129.5c-0.5,2.4-1.3,4.2-2.5,5.4c-1.1,1.2-2.8,1.9-5,1.9c-2.3,0-4-0.8-5.3-2.3c-1.3-1.5-1.9-4.4-1.9-8.5
			c0-1.7,0.1-3.2,0.4-4.5H18.6c-0.2,1.4-0.3,2.9-0.3,4.5c0,4.6,0.9,8.4,2.8,11.4c1.9,3,4.1,5.1,6.7,6.2c2.6,1.2,5.9,1.8,10,1.8
			c3.4,0,6.1-0.5,8.3-1.5c2.2-1,4-2.4,5.4-4.3c1.5-1.9,2.5-4.3,3.2-7.1L44.5,129.5z"/>
	</g>
	<path class="st1" d="M177.7,69.9c8.5,0,15.5-6.9,15.5-15.5c0-8.5-6.9-15.5-15.5-15.5c-8.5,0-15.5,6.9-15.5,15.5
		C162.2,63,169.2,69.9,177.7,69.9L177.7,69.9z"/>
	<path class="st1" d="M102.6,79c-13.5,0-24.5-11-24.5-24.5c0-13.5,11-24.5,24.5-24.5c9.1,0,17,4.9,21.2,12.2l11.3-6.5
		c-6.5-11.2-18.6-18.8-32.5-18.8C81.9,16.9,65,33.7,65,54.5C65,75.2,81.9,92,102.6,92c13.9,0,26-7.5,32.5-18.8l-11.3-6.5
		C119.6,74,111.7,79,102.6,79L102.6,79z"/>
	<path class="st1" d="M115.2,63.5c7.2-10,23.2-6.7,27.5,4.4C148,82,161.7,92,177.7,92c20.7,0,37.5-16.8,37.5-37.5
		c0-20.7-16.8-37.6-37.5-37.6c-16.1,0-29.8,10.1-35.1,24.2c-4.4,11.8-20,14-27.6,4c-2.8-3.7-7.3-6.1-12.3-6.1
		c-8.6,0-15.5,6.9-15.5,15.5c0,8.5,6.9,15.5,15.5,15.5C107.8,69.9,112.3,67.4,115.2,63.5L115.2,63.5z M177.7,79
		c-13.5,0-24.5-11-24.5-24.5c0-13.5,11-24.5,24.5-24.5c13.5,0,24.5,11,24.5,24.5C202.2,68,191.2,79,177.7,79L177.7,79z"/>
</g>
</svg>
