<?xml version="1.0" encoding="utf-8"?>
<!-- Generator: Adobe Illustrator 25.0.0, SVG Export Plug-In . SVG Version: 6.00 Build 0)  -->
<svg version="1.1" id="레이어_1" xmlns="http://www.w3.org/2000/svg" xmlns:xlink="http://www.w3.org/1999/xlink" x="0px"
	 y="0px" viewBox="0 0 500 500" style="enable-background:new 0 0 500 500;" xml:space="preserve">
<style type="text/css">
	.st0{fill:#FFFFFF;}
</style>
<path class="st0" d="M454.54,422.71l-62.49-62.49c26.88-34.7,41.45-77.06,41.45-121.66c0-53.2-20.72-103.21-58.33-140.82
	c-37.62-37.61-87.63-58.33-140.82-58.33S131.15,60.13,93.54,97.74C55.92,135.36,35.2,185.37,35.2,238.56s20.72,103.21,58.33,140.82
	c37.62,37.62,87.63,58.33,140.82,58.33c43.63,0,85.12-13.95,119.38-39.72l62.76,62.76c5.67,5.67,14.85,5.67,20.52,0l17.53-17.53
	C460.21,437.57,460.21,428.38,454.54,422.71z M84.66,238.56c0-82.54,67.15-149.69,149.69-149.69c82.54,0,149.69,67.15,149.69,149.69
	c0,82.54-67.15,149.69-149.69,149.69C151.82,388.26,84.66,321.11,84.66,238.56z"/>
</svg>
