<?xml version="1.0" encoding="utf-8"?>
<!-- Generator: Adobe Illustrator 25.0.0, SVG Export Plug-In . SVG Version: 6.00 Build 0)  -->
<svg version="1.1" id="레이어_1" xmlns="http://www.w3.org/2000/svg" xmlns:xlink="http://www.w3.org/1999/xlink" x="0px"
	 y="0px" viewBox="0 0 500 500" style="enable-background:new 0 0 500 500;" xml:space="preserve">
<style type="text/css">
	.st0{fill:#DC5354;}
</style>
<g>
	<g>
		<path class="st0" d="M350.1,483.56H150.82c-6.94,0-13.94-0.69-20.78-2.04c-6.85-1.36-13.57-3.4-20.01-6.07
			c-6.43-2.66-12.63-5.98-18.43-9.85c-5.79-3.87-11.23-8.33-16.15-13.26c-4.95-4.95-9.4-10.38-13.26-16.16
			c-3.87-5.79-7.18-11.99-9.84-18.42c-2.67-6.46-4.71-13.19-6.07-20.01c-1.36-6.81-2.04-13.81-2.04-20.79V123.32
			c0-6.98,0.69-13.98,2.05-20.8c1.35-6.81,3.39-13.54,6.06-19.99c2.66-6.43,5.98-12.63,9.85-18.43c3.86-5.77,8.31-11.21,13.25-16.15
			c4.95-4.95,10.39-9.4,16.17-13.27c5.79-3.87,11.99-7.18,18.42-9.85c6.45-2.67,13.18-4.71,20-6.06c6.83-1.36,13.83-2.05,20.79-2.05
			H350.1c6.96,0,13.96,0.69,20.8,2.05c6.81,1.35,13.54,3.39,20,6.06c6.41,2.66,12.61,5.97,18.42,9.84
			c5.81,3.88,11.24,8.34,16.16,13.26c4.94,4.94,9.4,10.37,13.27,16.16s7.18,11.99,9.85,18.42c2.66,6.42,4.7,13.15,6.06,19.99
			c1.36,6.82,2.05,13.82,2.05,20.8v253.64c0,6.98-0.69,13.98-2.05,20.8c-1.36,6.84-3.4,13.56-6.06,19.99
			c-2.67,6.43-5.98,12.63-9.85,18.43c-3.86,5.78-8.32,11.22-13.26,16.15c-4.9,4.91-10.34,9.37-16.15,13.26
			c-5.81,3.88-12.02,7.19-18.43,9.85c-6.43,2.66-13.16,4.7-19.99,6.06C364.03,482.88,357.04,483.56,350.1,483.56z M150.82,54.61
			c-4.48,0-8.99,0.44-13.41,1.32c-4.4,0.87-8.73,2.19-12.88,3.91c-4.15,1.72-8.15,3.85-11.88,6.35c-3.73,2.49-7.23,5.36-10.42,8.55
			c-3.17,3.17-6.05,6.68-8.53,10.4c-2.5,3.74-4.64,7.74-6.35,11.88c-1.73,4.16-3.04,8.49-3.91,12.88
			c-0.88,4.41-1.32,8.92-1.32,13.41v253.64c0,4.5,0.44,9.01,1.32,13.4c0.87,4.4,2.19,8.73,3.91,12.9c1.71,4.14,3.85,8.14,6.35,11.87
			c2.49,3.73,5.36,7.23,8.55,10.42c3.16,3.17,6.67,6.04,10.4,8.53c3.74,2.5,7.74,4.64,11.88,6.35c4.15,1.73,8.49,3.04,12.89,3.92
			c4.41,0.87,8.92,1.32,13.4,1.32H350.1c4.48,0,8.99-0.44,13.42-1.32c4.38-0.87,8.72-2.19,12.87-3.91
			c4.14-1.71,8.14-3.85,11.89-6.36c3.74-2.5,7.24-5.37,10.39-8.53c3.19-3.19,6.06-6.69,8.55-10.41c2.5-3.74,4.64-7.74,6.36-11.88
			c1.71-4.14,3.03-8.48,3.91-12.89c0.87-4.39,1.32-8.9,1.32-13.4V123.32c0-4.5-0.44-9.01-1.32-13.4c-0.88-4.41-2.19-8.75-3.91-12.89
			c-1.72-4.15-3.85-8.15-6.35-11.88c-2.49-3.73-5.36-7.23-8.54-10.42c-3.17-3.17-6.68-6.05-10.41-8.54
			c-3.74-2.5-7.74-4.64-11.87-6.35c-4.16-1.73-8.49-3.04-12.88-3.91c-4.43-0.88-8.94-1.33-13.41-1.33H150.82z"/>
	</g>
	<g>
		<rect x="123.91" y="176.84" class="st0" width="253.09" height="21.72"/>
	</g>
	<g>
		<rect x="123.91" y="236.56" class="st0" width="253.09" height="21.72"/>
	</g>
	<g>
		<rect x="123.91" y="296.29" class="st0" width="253.09" height="21.72"/>
	</g>
</g>
</svg>
