<svg id="레이어_1" data-name="레이어 1" xmlns="http://www.w3.org/2000/svg" viewBox="0 0 1000 1000"><defs><style>.cls-1{fill:#178dcc;}.cls-2{fill:#00a0e9;}.cls-3{fill:#33bdea;}.cls-4{fill:#07549b;}.cls-5{fill:#1a8bcd;}</style></defs><polygon class="cls-1" points="500 648.15 381.56 579.77 381.56 443 381.56 443 275.51 381.77 275.51 381.77 275.51 640.99 500 770.6 500 770.6 500 770.6 500 648.15"/><polygon class="cls-2" points="724.49 381.77 724.49 381.77 683.4 405.49 724.49 381.77"/><polygon class="cls-3" points="618.44 320.55 500 252.16 381.56 320.55 275.51 381.77 381.56 443 487.61 381.77 500 374.62 512.39 381.77 618.44 443 683.4 405.49 724.49 381.77 618.44 320.55"/><polygon class="cls-4" points="683.4 405.49 618.44 443 618.44 565.45 618.44 579.77 606.05 586.92 500 648.15 500 770.6 500 770.6 606.05 709.37 724.49 640.99 724.49 504.23 724.49 381.77 683.4 405.49"/><polygon class="cls-2" points="618.44 443 683.4 405.49 618.44 443 618.44 443 618.44 443"/><polygon class="cls-5" points="724.49 640.99 934.84 511.38 724.49 381.77 724.49 640.99"/><polygon class="cls-4" points="275.51 640.99 65.16 511.38 275.51 381.77 275.51 640.99"/></svg>