<svg id="레이어_1" data-name="레이어 1" xmlns="http://www.w3.org/2000/svg" viewBox="0 0 1000 1000"><defs><style>.cls-1{fill:#D5896F;}</style></defs><path class="cls-1" d="M851,438c-9.72-7.89-21.1-13.91-33.43-16.42a69.6,69.6,0,0,0-18.28-1.16c-6.63.43-13.06,2.3-19.69,2.68-24.23,1.39-49.1-21.32-52.61-44.84-1.82-12.25,2.08-24.54,1.58-36.87a80.39,80.39,0,0,0-10.42-37.14c-13.1-22.56-39.69-36.68-65.64-36.13-12.35.26-25.4,4-36.41,9.46-12.49,6.24-23.62,15.23-35.53,22.5-11.09,6.78-21.53,13.8-34.58,15.75-10.71,1.61-21.29,4-32,5.5-24,3.44-84.69,4.58-73-35.17,2.55-8.67,8.31-17.21,17.5-19.46,11.17-2.74,22.31,1.42,33.43,2,12.16.67,27.71,1.14,37.63-7,3.8-3.11,8.89-5.07,13.11-8.06a83.09,83.09,0,0,0,15.26-13.81c16.18-19,20.73-46.84,13.56-70.56-7.4-24.51-29-43.79-53.7-49.78C493.5,113.62,467.28,121.14,449,138c-15.93,14.69-23.52,37.61-23.23,58.87.09,6.25,1.58,12.09,2,18.13a47,47,0,0,1-1.9,16.5,58.72,58.72,0,0,1-20,28.69c-9.3,7.25-20.91,11.56-32.78,11-5.68-.27-11-2.08-16.58-2.89a56.05,56.05,0,0,0-19.75.79c-26,5.53-48.23,23.76-56.93,49A76.88,76.88,0,0,0,291,388.63c14.86,19.93,40.74,31.26,64.27,28.53,35.57-4.13,35.54-37.49,83.85-52.42,22.79-7,45.66-6.68,58.84-6.48,15.34.24,28.5,1,45.19,5.93,16,4.73,28.31,14.31,42.33,22.91,12.49,7.67,23.48,17.39,37.06,23.32,13.83,6.05,28,7.51,42.88,6.81,14.71-.7,31.11-2.86,40.64,11,8.76,12.78,5.48,28.85-6.78,38.18-10.81,8.23-27.86,8-40.77,8.32-15.37.34-31-.06-45.91-4.27a118.58,118.58,0,0,1-19.31-7.89c-4.34-2.1-10-3.58-13.83-6.21-22.36-15.33-46-35-74.14-37-29.89-2.14-54.55,16.09-77.57,32.64-12.54,9-25.11,16.11-40.25,19.82-14.64,3.6-30.44,4.15-45.47,3.75-30.8-.81-59.82-12.18-84.76-30.11-12.12-8.7-23.94-17.69-38.48-21.93a77.3,77.3,0,0,0-40.44-1c-27.17,7-49.91,31.94-54.45,59.66-4.72,28.89,9.25,59.49,33.84,75.12,12.88,8.19,27.28,11.7,42.45,11.73,14.48,0,29.07-3.56,43.43-.37,15,3.35,26.07,15,29,30.19,2.56,13.14.09,27.11.32,40.4.51,29.48,13.86,58.09,41.48,71.37a78,78,0,0,0,77.6-5.94c2.6-1.79,5.34-2.72,8-4.29s4.57-3.76,7-5.59c2.58-2,5.7-3.11,8.38-5,3.24-2.25,6.46-4.48,9.83-6.52A147.05,147.05,0,0,1,470,665.63c14.49-3.19,30.19-2.69,45-2,14.05.68,30.15,2.4,40,13.68,3.71,4.25,6.32,8.67,6.28,14.28,0,3.43.73,8-.08,11.3-.77,3.16-16.86,18.32-19,19.36-7.55,3.7-14.36,2.07-22.41.62a117.06,117.06,0,0,0-20.09-2.19c-3,0-5.35-.61-8.34.08-3.74.86-7.49,1.73-11.18,2.82-15.49,4.58-28.88,13.3-38.7,26.23a75.7,75.7,0,0,0-8.48,76.79c12.44,27.08,40.73,44.65,70.55,43.53,29.33-1.11,57.33-20.83,66.93-48.79,4.8-14,4.46-28.15,3.62-42.68-.39-6.77-.6-13.56.45-20.28,1.14-7.33,5.14-14,9.52-19.95a52.39,52.39,0,0,1,36.69-21.09c13.82-1.38,27.52,2.47,41.38.89,29.73-3.4,54.5-24.53,63.37-53,8.46-27.11,0-58-21.17-77.07-20.36-18.28-51.68-25.1-77.2-14.36-13.55,5.7-25,15.23-36.46,24.15-13,10-26.31,18.18-42,23.09-14.11,4.4-29.59,7.34-44.4,7-14.33-.36-28.28-.86-42.19-4.49-14.93-3.89-28.26-11.84-40.52-21-11-8.25-21.83-15.88-33.83-22.57a83.93,83.93,0,0,0-44.18-10.81c-13.16.42-28.74,4-40.71-3.25-11.51-7-15.5-21.41-10.63-33.71,5.94-15,21.11-18.37,35.61-19.78,15.64-1.51,33-2,48.59.51,6.95,1.12,51.41,22.31,57.05,26.07,7.18,4.76,14.2,9.78,21.45,14.43,12.17,7.8,25.36,13.95,39.94,15.23,31.89,2.78,58-20,83.21-36.08,12.19-7.79,25.8-14.79,39.92-18.19,14.77-3.56,30.19-3.77,45.28-2.85a140.54,140.54,0,0,1,82.45,32.84c10.69,8.87,21.5,16.89,34.86,21.29a74,74,0,0,0,41.15,1.3c27.6-6.87,49.53-28.9,55.09-57A74,74,0,0,0,851,438ZM456.18,239.07"/></svg>