<svg id="레이어_1" data-name="레이어 1" xmlns="http://www.w3.org/2000/svg" viewBox="0 0 1000 1000"><defs><style>.cls-1{fill:#00a0e9;fill-rule:evenodd;}</style></defs><path class="cls-1" d="M793.65,437.11v0ZM437.19,793.61v0ZM451.54,805a87.85,87.85,0,0,0,42.3,14.33l8.3.14a88.41,88.41,0,0,0,60.41-25.89c.76-.65,1.52-1.29,2.27-1.9a90.31,90.31,0,0,0,23.41-60.64,201.39,201.39,0,0,1,4.53-44.24c10.58-51.81,42.29-83.47,94.4-94.3A214.6,214.6,0,0,1,731,588.32a89.85,89.85,0,0,0,61.17-24c0-.69.75-1.37,1.51-2a88.24,88.24,0,0,0,0-125.21v-.32c-.76-.41-.76-.82-1.51-1.23A87.77,87.77,0,0,0,731,411.24h0a88.39,88.39,0,0,0-88.36,88.54v3.09A229.52,229.52,0,0,1,638.83,544c-11.32,51.88-43,83.58-94.4,94.39a217.43,217.43,0,0,1-41.54,4.18h-3c-48.33,0-88.36,39.89-88.36,88.54a88.17,88.17,0,0,0,25.68,62.54v.28A95,95,0,0,0,451.54,805Z"/><path class="cls-1" d="M588.23,499.3c0-23.76,8.31,28.77-25.68,63,.76-.65,1.52-1.29,2.27-1.91a90.27,90.27,0,0,0,23.41-60.63,201.54,201.54,0,0,1,4.53-44.25c10.58-51.8,42.29-83.47,94.4-94.29A214.58,214.58,0,0,1,731,357a89.76,89.76,0,0,0,61.17-24c0-.68.75-1.36,1.51-2a88.61,88.61,0,0,0,.76-124.94c-.76-.1-.76-.19-.76-.28A87.44,87.44,0,0,0,731,180h0a88.38,88.38,0,0,0-88.36,88.54v3a230.2,230.2,0,0,1-3.78,41.17c-11.32,51.89-43,83.59-94.4,94.39a217.82,217.82,0,0,1-38.51,4.13c-2.27-.14-4.54-.21-6.05-.21h-.75A86.93,86.93,0,0,0,441,433.46c-1.51,1.25-2.27,2.46-3.78,3.65a15.16,15.16,0,0,1-3.77,3.42c-13.6,15.66-22.66,36.32-22.66,59,0,16.13-.76,30.91-3.77,44.34-10.58,51.72-42.3,83.34-94.41,94.18A216.65,216.65,0,0,1,268,642.25a88.66,88.66,0,0,0-59.66,23.4c-.76.93-1.51,1.85-2.27,2.75a88.34,88.34,0,0,0,55.13,150.65l10.58.2a88.62,88.62,0,0,0,85.33-88.46v-5.23a206.42,206.42,0,0,1,3.78-38.85c11.33-52,43-83.7,94.4-94.5a212.72,212.72,0,0,1,39.27-4.12h.75c1.51,0,3,0,4.53,0,48.34,0,88.36-39.64,88.36-88.54Z"/><path class="cls-1" d="M793.65,668.4a88.73,88.73,0,0,0-125.36,0c-34,34.57-34,90.64,0,125.21A88.59,88.59,0,1,0,793.65,668.4Z"/></svg>