<svg id="레이어_1" data-name="레이어 1" xmlns="http://www.w3.org/2000/svg" viewBox="0 0 1000 1000"><defs><style>.cls-1{fill:#D5B942;}.cls-2{fill:#E3DE8F;}</style></defs><path class="cls-1" d="M746,580.94c1.44-.14,2.2.92,3.06,1.78L861.23,694.86a8.83,8.83,0,0,1,.79,1.08c-.71,1.32-1.93.78-2.89.78q-113.77,0-227.55,0c-.77,0-1.53-.13-2.3-.2-3.25-1.19-5.76-3.37-8.19-5.8q-50.64-50.65-101.3-101.29c-1.2-1.2-2.4-2.39-3.65-3.54a2.66,2.66,0,0,0-4.07,0c-1.25,1.15-2.45,2.34-3.65,3.54q-50.52,50.46-101,101c-2.53,2.53-5.1,4.89-8.52,6.13l-.29.2-.34-.08a2.43,2.43,0,0,0-1.22.87v0c-.33.3-.64.61-.94.94h0a9.18,9.18,0,0,0-.93.94v0a11.91,11.91,0,0,0-.94.94h0a9.18,9.18,0,0,0-.93.94v0a11.91,11.91,0,0,0-.94.94h0a10.42,10.42,0,0,0-.94.94l0,0a11.91,11.91,0,0,0-.94.94h0a10.42,10.42,0,0,0-.94.94l0,0a11.91,11.91,0,0,0-.94.94h0a10.42,10.42,0,0,0-.94.94l0,0a10.42,10.42,0,0,0-.94.94h0a11.78,11.78,0,0,0-.94.93h0a10.42,10.42,0,0,0-.94.94h0a11.78,11.78,0,0,0-.94.93h0a11.78,11.78,0,0,0-.93.94h0a11.78,11.78,0,0,0-.94.93h0a11.78,11.78,0,0,0-.93.94h0a10.31,10.31,0,0,0-.94.93h0a11.78,11.78,0,0,0-.93.94h0a10.31,10.31,0,0,0-.94.93h0c-.33.3-.64.61-.94.94h0a10.31,10.31,0,0,0-.94.93h0c-.33.3-.64.61-.94.94h0a10.31,10.31,0,0,0-.94.93h0c-.33.3-.64.61-.94.94h0a9.18,9.18,0,0,0-.94.93h0c-.33.3-.64.61-.94.94h0a9.18,9.18,0,0,0-.94.93h0a11.91,11.91,0,0,0-.94.94h0a10.2,10.2,0,0,0-.93.93h0a11.91,11.91,0,0,0-.94.94h0a10.2,10.2,0,0,0-.93.93h0a10.42,10.42,0,0,0-.94.94h0a10.2,10.2,0,0,0-.93.93h0a10.42,10.42,0,0,0-.94.94h0a11.78,11.78,0,0,0-.94.93h0a10.42,10.42,0,0,0-.94.94h0a11.78,11.78,0,0,0-.94.93h0a10.42,10.42,0,0,0-.94.94h0a11.78,11.78,0,0,0-.94.93h0a9.27,9.27,0,0,0-.94.94h0a11.78,11.78,0,0,0-.94.93h0a9.27,9.27,0,0,0-.94.94h0a11.78,11.78,0,0,0-.94.93h0a10.31,10.31,0,0,0-.93.94h0a11.78,11.78,0,0,0-.94.93h0a10.31,10.31,0,0,0-.93.94h0a10.31,10.31,0,0,0-.94.93h0a10.31,10.31,0,0,0-.93.94h0a10.31,10.31,0,0,0-.94.93h0a11.91,11.91,0,0,0-.94.94h0a10.31,10.31,0,0,0-.94.93h0a11.91,11.91,0,0,0-.94.94h0a10.31,10.31,0,0,0-.94.93h0a11.91,11.91,0,0,0-.94.94h0a9.18,9.18,0,0,0-.94.93h0a11.91,11.91,0,0,0-.94.94h0a9.18,9.18,0,0,0-.94.93h0a11.91,11.91,0,0,0-.94.94h0a10.2,10.2,0,0,0-.93.93h0a11.91,11.91,0,0,0-.94.94h0a10.2,10.2,0,0,0-.93.93h0a10.42,10.42,0,0,0-.94.94v0a11.78,11.78,0,0,0-.93.94h0a10.42,10.42,0,0,0-.94.94v0c-.33.3-.64.61-.94.94h0a10.42,10.42,0,0,0-.94.94v0c-.33.3-.64.61-.94.94h0a10.42,10.42,0,0,0-.94.94v0c-.33.3-.64.61-.94.94h0a9.27,9.27,0,0,0-.94.94v0c-.33.3-.64.61-.94.94h0a9.27,9.27,0,0,0-.94.94v0c-.33.3-.64.61-.94.94h0a10.31,10.31,0,0,0-.93.94v0c-.33.3-.64.61-.94.94h0a10.31,10.31,0,0,0-.93.94v0a11.91,11.91,0,0,0-.94.94h0a10.31,10.31,0,0,0-.93.94v0a11.91,11.91,0,0,0-.94.94h0a11.91,11.91,0,0,0-.94.94l0,0a11.91,11.91,0,0,0-.94.94h0a11.91,11.91,0,0,0-.94.94l0,0a11.91,11.91,0,0,0-.94.94h0a11.91,11.91,0,0,0-.94.94l0,0a10.42,10.42,0,0,0-.94.94h0a11.91,11.91,0,0,0-.94.94l0,0a10.42,10.42,0,0,0-.94.94h0a11.91,11.91,0,0,0-.94.94v0a11.78,11.78,0,0,0-.93.94h0a11.91,11.91,0,0,0-.94.94v0a11.78,11.78,0,0,0-.93.94h0a9.27,9.27,0,0,0-.94.94v0a11.78,11.78,0,0,0-.93.94h0a9.27,9.27,0,0,0-.94.94v0a11.78,11.78,0,0,0-.93.94h0a9.27,9.27,0,0,0-.94.94v0c-.33.3-.64.61-.94.94h0a9.27,9.27,0,0,0-.94.94v0c-.33.3-.64.61-.94.94h0a8.34,8.34,0,0,0-.94.94v0c-.33.3-.64.61-.94.94h0a8.34,8.34,0,0,0-.94.94v0c-.33.3-.64.61-.94.94h0a8.34,8.34,0,0,0-.94.94v0c-.33.3-.64.61-.94.94h0a9.18,9.18,0,0,0-.93.94v0a11.91,11.91,0,0,0-.94.94h0a9.18,9.18,0,0,0-.93.94v0a11.91,11.91,0,0,0-.94.94h0a9.18,9.18,0,0,0-.93.94v0a11.91,11.91,0,0,0-.94.94h0a10.42,10.42,0,0,0-.94.94l0,0a11.91,11.91,0,0,0-.94.94h0a10.42,10.42,0,0,0-.94.94l0,0a10.42,10.42,0,0,0-.94.94h0a10.42,10.42,0,0,0-.94.94l0,0a10.42,10.42,0,0,0-.94.94h0a10.42,10.42,0,0,0-.94.94l0,0a10.42,10.42,0,0,0-.94.94h0a10.42,10.42,0,0,0-.94.94v0a11.78,11.78,0,0,0-.93.94h0a9.27,9.27,0,0,0-.94.94v0a11.78,11.78,0,0,0-.93.94h0a9.27,9.27,0,0,0-.94.94v0a11.78,11.78,0,0,0-.93.94h0a9.27,9.27,0,0,0-.94.94v0c-.33.3-.64.61-.94.94h0a9.27,9.27,0,0,0-.94.94v0c-.33.3-.64.61-.94.94h0a8.34,8.34,0,0,0-.94.94v0c-.33.3-.64.61-.94.94h0a8.34,8.34,0,0,0-.94.94v0c-.33.3-.64.61-.94.94h0a9.18,9.18,0,0,0-.94.93h0c-.33.3-.64.61-.94.94h0a10.2,10.2,0,0,0-.93.93h0a8.34,8.34,0,0,0-.94.94h0a.49.49,0,0,1-.81,0c-.09-1.84-.25-3.68-.25-5.52q0-239.13,0-478.27c0-1.84.12-3.68.19-5.53,1.93-.9,3.21.37,4.5,1.42s2.23,2.12,3.32,3.21q58.88,58.93,117.83,117.79a26.73,26.73,0,0,1,4.3,4.78,13.54,13.54,0,0,1,1,1.38,5.53,5.53,0,0,1,.66.79,6.26,6.26,0,0,1,.6.76l.29.37a5.43,5.43,0,0,1,.58.69s.28.35.3.33a5.26,5.26,0,0,1,.61.64s.29.33.3.32a4,4,0,0,1,.62.62s.29.32.31.31a4,4,0,0,1,.61.62s.3.32.31.31a3.58,3.58,0,0,1,.62.61s.29.33.31.31a4,4,0,0,1,.61.62s.3.32.31.3a4,4,0,0,1,.62.62s.29.32.31.31a4.54,4.54,0,0,1,.62.62s.29.32.3.3a4,4,0,0,1,.62.62s.29.32.31.31a4,4,0,0,1,.62.62s.29.32.3.3a4,4,0,0,1,.62.62s.29.32.31.31a4,4,0,0,1,.62.62s.29.32.31.3a4.47,4.47,0,0,1,.61.62s.29.32.31.31a4,4,0,0,1,.62.62s.29.32.31.3a4.47,4.47,0,0,1,.61.62s.29.32.31.31a4,4,0,0,1,.62.62s.29.32.31.3a4.47,4.47,0,0,1,.61.62s.29.32.31.31a3.64,3.64,0,0,1,.62.62s.29.32.31.3a4,4,0,0,1,.61.62s.3.32.31.31a3.64,3.64,0,0,1,.62.62s.29.32.31.3a4,4,0,0,1,.61.62s.3.32.31.31a4,4,0,0,1,.62.61s.29.33.31.31a4,4,0,0,1,.61.62s.3.32.31.31a4,4,0,0,1,.62.61s.29.33.31.31a4.54,4.54,0,0,1,.62.62s.29.32.3.31a4,4,0,0,1,.62.61s.29.33.31.31a4.54,4.54,0,0,1,.62.62s.29.32.3.31a4,4,0,0,1,.62.61s.29.33.31.31a4.54,4.54,0,0,1,.62.62s.29.32.31.31a4.4,4.4,0,0,1,.61.61s.29.33.31.31a4.54,4.54,0,0,1,.62.62s.29.32.31.31a4.4,4.4,0,0,1,.61.61s.29.33.31.31a4,4,0,0,1,.62.62s.29.32.31.31a3.91,3.91,0,0,1,.61.61s.29.33.31.31a4,4,0,0,1,.62.62s.29.32.31.31a3.91,3.91,0,0,1,.61.61s.3.33.31.31a4,4,0,0,1,.62.62s.29.32.31.31a3.91,3.91,0,0,1,.61.61s.3.33.31.31a4,4,0,0,1,.62.62s.29.32.31.31a4.47,4.47,0,0,1,.62.61s.29.33.3.31a4,4,0,0,1,.62.62s.29.32.31.31a4.47,4.47,0,0,1,.62.61s.29.33.3.31a4,4,0,0,1,.62.62s.29.32.31.31a4.47,4.47,0,0,1,.62.61s.29.33.31.31a4.47,4.47,0,0,1,.61.62s.29.32.31.31a4.47,4.47,0,0,1,.62.61s.29.33.31.31a4.47,4.47,0,0,1,.61.62s.29.32.31.31a4,4,0,0,1,.62.61s.29.33.31.31a4,4,0,0,1,.61.62s.29.32.31.31a4,4,0,0,1,.62.61s.29.33.31.31a4,4,0,0,1,.61.62s.3.32.31.31a4,4,0,0,1,.62.61s.29.33.31.31a4,4,0,0,1,.61.62s.3.32.31.31a4,4,0,0,1,.62.61s.29.33.31.31a4.54,4.54,0,0,1,.62.62s.29.32.3.31a4,4,0,0,1,.62.61s.29.33.31.31a4.54,4.54,0,0,1,.62.62s.29.32.3.31a4,4,0,0,1,.62.61s.29.33.31.31a4.54,4.54,0,0,1,.62.62s.29.32.31.31a4.4,4.4,0,0,1,.61.61s.29.33.31.31a4.54,4.54,0,0,1,.62.62s.29.32.31.31a4.4,4.4,0,0,1,.61.61s.29.33.31.31a4,4,0,0,1,.62.62s.29.32.31.31a3.91,3.91,0,0,1,.61.61s.29.33.31.31a4,4,0,0,1,.62.62s.29.32.31.31a3.91,3.91,0,0,1,.61.61s.3.33.31.31a4,4,0,0,1,.62.62s.29.32.31.31a3.91,3.91,0,0,1,.61.61s.3.33.31.31a4,4,0,0,1,.62.62s.29.32.31.31a4.47,4.47,0,0,1,.62.61s.29.33.3.31a4,4,0,0,1,.62.62s.29.32.31.31a4.47,4.47,0,0,1,.62.61s.29.33.3.31a4,4,0,0,1,.62.62s.29.32.31.31a4.47,4.47,0,0,1,.62.61s.29.33.31.31a4.47,4.47,0,0,1,.61.62s.29.32.31.31a4.47,4.47,0,0,1,.62.61s.29.33.31.31a4.47,4.47,0,0,1,.61.62s.29.32.31.31a4,4,0,0,1,.62.61s.29.33.31.31a4,4,0,0,1,.61.62s.29.32.31.31a4,4,0,0,1,.62.61s.29.33.31.31a4,4,0,0,1,.61.62s.3.32.31.31a4,4,0,0,1,.62.61s.29.33.31.31a4,4,0,0,1,.61.62s.3.32.31.31a4,4,0,0,1,.62.61s.29.33.31.31a4.54,4.54,0,0,1,.62.62s.29.32.3.31a4,4,0,0,1,.62.61s.29.33.31.31a4.54,4.54,0,0,1,.62.62s.29.32.3.31a4,4,0,0,1,.62.61s.29.33.31.31a4.54,4.54,0,0,1,.62.62s.29.32.31.31a4.4,4.4,0,0,1,.61.61s.29.33.31.31a4.54,4.54,0,0,1,.62.62s.29.32.31.31a4.4,4.4,0,0,1,.61.61s.29.33.31.31a4,4,0,0,1,.62.62s.29.32.31.31a3.91,3.91,0,0,1,.61.61s.29.33.31.31a4,4,0,0,1,.62.62s.29.32.31.31a3.91,3.91,0,0,1,.61.61s.3.33.31.31a4,4,0,0,1,.62.62s.29.32.31.31a3.91,3.91,0,0,1,.61.61s.3.33.31.31a4,4,0,0,1,.62.62s.29.32.31.31a4.47,4.47,0,0,1,.62.61s.29.33.3.31a4,4,0,0,1,.62.62s.29.32.31.31a4,4,0,0,1,.62.61s.29.33.3.31a4,4,0,0,1,.62.62s.29.32.31.31a4,4,0,0,1,.62.61s.29.33.31.31a4.47,4.47,0,0,1,.61.62s.29.32.31.3a4.54,4.54,0,0,1,.62.62s.29.33.31.31a4.47,4.47,0,0,1,.61.62s.29.32.31.3a4,4,0,0,1,.62.62s.29.33.31.31a4,4,0,0,1,.61.62s.29.32.31.3a4,4,0,0,1,.62.62s.29.33.31.31a4,4,0,0,1,.61.62s.3.32.31.3a4,4,0,0,1,.62.62s.29.32.31.31a4,4,0,0,1,.61.62s.3.32.31.3a4,4,0,0,1,.62.62s.29.32.31.31a4.54,4.54,0,0,1,.62.62s.29.32.3.3a4,4,0,0,1,.62.62s.29.33.31.31a4,4,0,0,1,.62.62s.29.32.31.31a4.47,4.47,0,0,1,.62.61s.29.32.3.31a4,4,0,0,1,.62.61s.29.32.3.3a4.25,4.25,0,0,1,.6.6s.29.3.31.29c.22.15.42.34.63.51,0,0,.33.24.35.22.28.08.53.2.81.29,0,0,.44.12.47.09a8.1,8.1,0,0,1,1.1.16,7.72,7.72,0,0,0,2.65.53,35.54,35.54,0,0,1,6-.35q106.68,0,213.36,0C740.33,578.9,743.59,578.23,746,580.94Z"/><path class="cls-1" d="M513.87,349c1.7-1.55,3.46-3,5.09-4.67Q572.14,291.19,625.27,238c1.17-1.17,2.64-2.13,3.27-3.81-.7-1.28-1.9-.75-2.89-.82s-2.16,0-3.24,0H174.6c-2.31,0-4.62.06-6.94.09-.47-.38-.34-.83.15-.88,1.22-.12,2.46-.11,3.69-.11q228.11,0,456.21,0c.93,0,1.85,0,2.78,0a6.36,6.36,0,0,1,2,.28c1.71.81,2.87,2.29,4.17,3.59Q689,288.56,741.23,340.85a20.55,20.55,0,0,1,4.76,7.24v1a21.61,21.61,0,0,1-5.42,7.9q-52.8,52.67-105.53,105.4c-1.58,1.58-2.85,3.78-5.61,3.56-3-2.23-5.16-5.22-7.76-7.82q-52.12-52-104.14-104.07C516.05,352.61,514.11,351.39,513.87,349Z"/><path class="cls-2" d="M745.77,348.75c-1.26-1.13-2.57-2.2-3.77-3.39q-53.75-53.7-107.47-107.43c-1.19-1.2-2.26-2.52-3.38-3.78a1,1,0,0,1,.07-1.66c.92-1,1.79-2.1,2.77-3.07q54-54,107.94-107.9c1-1,2.17-2,3.22-3,1.12.9.76,1.88.76,2.72q0,112.37,0,224.73C745.92,346.91,745.82,347.83,745.77,348.75Z"/><path class="cls-2" d="M398.92,696.55c1.13-1.26,2.2-2.57,3.4-3.76q53.63-53.64,107.28-107.26c4.49-4.49,4.5-4.49,9,0L626.2,693.11c1.08,1.08,2.06,2.28,3.08,3.42-1.53.07-3.07.21-4.6.21H403.54C402,696.74,400.46,696.62,398.92,696.55Z"/><path class="cls-2" d="M631.22,232.49c0,.56-.05,1.11-.07,1.66l-.89-1Z"/><path class="cls-1" d="M398.7,464.39c.07.62.15,1.25.22,1.88a2.94,2.94,0,0,1-.94-1.94A1.27,1.27,0,0,1,398.7,464.39Z"/><path class="cls-1" d="M408.17,475.52a1.15,1.15,0,0,1,.93.92Z"/><path class="cls-1" d="M409.1,476.44a1.14,1.14,0,0,1,.92.93Z"/><path class="cls-1" d="M410,477.37a1.15,1.15,0,0,1,.93.92Z"/><path class="cls-1" d="M411,478.29a1.14,1.14,0,0,1,.92.93Z"/><path class="cls-1" d="M411.87,479.22a1.15,1.15,0,0,1,.93.92Z"/><path class="cls-1" d="M412.8,480.14a1.14,1.14,0,0,1,.92.93Z"/><path class="cls-1" d="M413.72,481.07a1.15,1.15,0,0,1,.93.92Z"/><path class="cls-1" d="M414.65,482a1.14,1.14,0,0,1,.92.93Z"/><path class="cls-1" d="M415.57,482.92a1.14,1.14,0,0,1,.93.92Z"/><path class="cls-1" d="M416.5,483.84a1.14,1.14,0,0,1,.92.93Z"/><path class="cls-1" d="M417.42,484.76a1.16,1.16,0,0,1,.93.93Z"/><path class="cls-1" d="M418.35,485.69a1.16,1.16,0,0,1,.93.93Z"/><path class="cls-1" d="M419.27,486.61a1.15,1.15,0,0,1,.93.93Z"/><path class="cls-1" d="M420.2,487.54a1.16,1.16,0,0,1,.93.93Z"/><path class="cls-1" d="M421.13,488.46a1.15,1.15,0,0,1,.92.93Z"/><path class="cls-1" d="M422.05,489.39a1.16,1.16,0,0,1,.93.93Z"/><path class="cls-1" d="M423,490.31a1.15,1.15,0,0,1,.92.93Z"/><path class="cls-1" d="M423.9,491.24a1.16,1.16,0,0,1,.93.93Z"/><path class="cls-1" d="M424.83,492.16a1.15,1.15,0,0,1,.92.93Z"/><path class="cls-1" d="M425.75,493.09a1.16,1.16,0,0,1,.93.92Z"/><path class="cls-1" d="M426.68,494a1.15,1.15,0,0,1,.92.93Z"/><path class="cls-1" d="M427.6,494.94a1.16,1.16,0,0,1,.93.92Z"/><path class="cls-1" d="M428.53,495.86a1.15,1.15,0,0,1,.92.93Z"/><path class="cls-1" d="M429.45,496.79a1.14,1.14,0,0,1,.93.92Z"/><path class="cls-1" d="M430.38,497.71a1.15,1.15,0,0,1,.92.93Z"/><path class="cls-1" d="M431.3,498.64a1.14,1.14,0,0,1,.93.92Z"/><path class="cls-1" d="M432.23,499.56a1.17,1.17,0,0,1,.93.93Z"/><path class="cls-1" d="M433.15,500.49a1.13,1.13,0,0,1,.93.92Z"/><path class="cls-1" d="M434.08,501.41a1.17,1.17,0,0,1,.93.93Z"/><path class="cls-1" d="M435,502.34a1.13,1.13,0,0,1,.92.92Z"/><path class="cls-1" d="M435.93,503.26a1.17,1.17,0,0,1,.93.93Z"/><path class="cls-1" d="M436.86,504.19a1.13,1.13,0,0,1,.92.92Z"/><path class="cls-1" d="M437.78,505.11a1.17,1.17,0,0,1,.93.93Z"/><path class="cls-1" d="M438.71,506a1.13,1.13,0,0,1,.92.92Z"/><path class="cls-1" d="M439.63,507a1.17,1.17,0,0,1,.93.93Z"/><path class="cls-1" d="M440.56,507.89a1.13,1.13,0,0,1,.92.92Z"/><path class="cls-1" d="M441.48,508.81a1.17,1.17,0,0,1,.93.93Z"/><path class="cls-1" d="M442.41,509.74a1.13,1.13,0,0,1,.92.92Z"/><path class="cls-1" d="M443.33,510.66a1.16,1.16,0,0,1,.93.93Z"/><path class="cls-1" d="M444.26,511.59a1.13,1.13,0,0,1,.92.92Z"/><path class="cls-1" d="M445.18,512.51a1.16,1.16,0,0,1,.93.93Z"/><path class="cls-1" d="M446.11,513.44a1.15,1.15,0,0,1,.93.92Z"/><path class="cls-1" d="M447,514.36a1.15,1.15,0,0,1,.93.93Z"/><path class="cls-1" d="M448,515.29a1.15,1.15,0,0,1,.93.92Z"/><path class="cls-1" d="M448.89,516.21a1.15,1.15,0,0,1,.92.93Z"/><path class="cls-1" d="M449.81,517.14a1.15,1.15,0,0,1,.93.92Z"/><path class="cls-1" d="M450.74,518.06a1.15,1.15,0,0,1,.92.93Z"/><path class="cls-1" d="M451.66,519a1.15,1.15,0,0,1,.93.92Z"/><path class="cls-1" d="M452.59,519.91a1.15,1.15,0,0,1,.92.93Z"/><path class="cls-1" d="M453.51,520.84a1.15,1.15,0,0,1,.93.92Z"/><path class="cls-1" d="M454.44,521.76a1.15,1.15,0,0,1,.92.93Z"/><path class="cls-1" d="M455.36,522.69a1.15,1.15,0,0,1,.93.92Z"/><path class="cls-1" d="M456.29,523.61a1.15,1.15,0,0,1,.92.93Z"/><path class="cls-1" d="M457.21,524.54a1.14,1.14,0,0,1,.93.92Z"/><path class="cls-1" d="M458.14,525.46a1.15,1.15,0,0,1,.92.93Z"/><path class="cls-1" d="M459.06,526.39a1.14,1.14,0,0,1,.93.92Z"/><path class="cls-1" d="M460,527.31a1.17,1.17,0,0,1,.93.93Z"/><path class="cls-1" d="M460.91,528.24a1.14,1.14,0,0,1,.93.92Z"/><path class="cls-1" d="M461.84,529.16a1.17,1.17,0,0,1,.93.93Z"/><path class="cls-1" d="M462.77,530.09a1.13,1.13,0,0,1,.92.92Z"/><path class="cls-1" d="M463.69,531a1.17,1.17,0,0,1,.93.93Z"/><path class="cls-1" d="M464.62,531.94a1.13,1.13,0,0,1,.92.92Z"/><path class="cls-1" d="M465.54,532.86a1.17,1.17,0,0,1,.93.93Z"/><path class="cls-1" d="M466.47,533.79a1.13,1.13,0,0,1,.92.92Z"/><path class="cls-1" d="M467.39,534.71a1.17,1.17,0,0,1,.93.93Z"/><path class="cls-1" d="M468.32,535.64a1.13,1.13,0,0,1,.92.92Z"/><path class="cls-1" d="M469.24,536.56a1.17,1.17,0,0,1,.93.93Z"/><path class="cls-1" d="M470.17,537.49a1.13,1.13,0,0,1,.92.92Z"/><path class="cls-1" d="M471.09,538.41a1.16,1.16,0,0,1,.93.93Z"/><path class="cls-1" d="M472,539.34a1.13,1.13,0,0,1,.92.92Z"/><path class="cls-1" d="M472.94,540.26a1.16,1.16,0,0,1,.93.93Z"/><path class="cls-1" d="M473.87,541.19a1.15,1.15,0,0,1,.93.92Z"/><path class="cls-1" d="M474.79,542.11a1.16,1.16,0,0,1,.93.93Z"/><path class="cls-1" d="M475.72,543a1.15,1.15,0,0,1,.93.92Z"/><path class="cls-1" d="M476.65,544a1.15,1.15,0,0,1,.92.93Z"/><path class="cls-1" d="M477.57,544.89a1.15,1.15,0,0,1,.93.92Z"/><path class="cls-1" d="M478.5,545.81a1.15,1.15,0,0,1,.92.93Z"/><path class="cls-1" d="M479.42,546.74a1.15,1.15,0,0,1,.93.92Z"/><path class="cls-1" d="M480.35,547.66a1.15,1.15,0,0,1,.92.93Z"/><path class="cls-1" d="M481.27,548.59a1.15,1.15,0,0,1,.93.92Z"/><path class="cls-1" d="M482.2,549.51a1.15,1.15,0,0,1,.92.93Z"/><path class="cls-1" d="M483.12,550.44a1.15,1.15,0,0,1,.93.92Z"/><path class="cls-1" d="M484.05,551.36a1.15,1.15,0,0,1,.92.93Z"/><path class="cls-1" d="M485,552.29a1.14,1.14,0,0,1,.93.92Z"/><path class="cls-1" d="M485.9,553.21a1.15,1.15,0,0,1,.92.93Z"/><path class="cls-1" d="M486.82,554.14a1.14,1.14,0,0,1,.93.92Z"/><path class="cls-1" d="M487.75,555.06a1.17,1.17,0,0,1,.93.93Z"/><path class="cls-1" d="M488.67,556a1.14,1.14,0,0,1,.93.92Z"/><path class="cls-1" d="M489.6,556.91a1.17,1.17,0,0,1,.93.93Z"/><path class="cls-1" d="M490.53,557.84a1.13,1.13,0,0,1,.92.92Z"/><path class="cls-1" d="M491.45,558.76a1.17,1.17,0,0,1,.93.93Z"/><path class="cls-1" d="M492.38,559.69a1.13,1.13,0,0,1,.92.92Z"/><path class="cls-1" d="M493.3,560.61a1.17,1.17,0,0,1,.93.93Z"/><path class="cls-1" d="M494.23,561.54a1.13,1.13,0,0,1,.92.92Z"/><path class="cls-1" d="M495.15,562.46a1.17,1.17,0,0,1,.93.93Z"/><path class="cls-1" d="M496.08,563.39a1.13,1.13,0,0,1,.92.92Z"/><path class="cls-1" d="M497,564.31a1.17,1.17,0,0,1,.93.93Z"/><path class="cls-1" d="M497.93,565.24a1.13,1.13,0,0,1,.92.92Z"/><path class="cls-1" d="M498.85,566.16a1.16,1.16,0,0,1,.93.93Z"/><path class="cls-1" d="M499.78,567.09a1.13,1.13,0,0,1,.92.92Z"/><path class="cls-1" d="M500.7,568a1.16,1.16,0,0,1,.93.93Z"/><path class="cls-1" d="M501.63,568.94a1.15,1.15,0,0,1,.93.92Z"/><path class="cls-1" d="M502.55,569.86a1.16,1.16,0,0,1,.93.93Z"/><path class="cls-1" d="M503.48,570.79a1.15,1.15,0,0,1,.93.92Z"/><path class="cls-1" d="M504.41,571.71a1.15,1.15,0,0,1,.92.93Z"/><path class="cls-1" d="M505.33,572.64a1.15,1.15,0,0,1,.93.92Z"/><path class="cls-1" d="M506.26,573.56a1.15,1.15,0,0,1,.92.93Z"/><path class="cls-1" d="M507.18,574.49a1.15,1.15,0,0,1,.93.92Z"/><path class="cls-1" d="M508.11,575.41a1.14,1.14,0,0,1,.92.93Z"/><path class="cls-1" d="M509,576.34a1.15,1.15,0,0,1,.93.92Z"/><path class="cls-1" d="M510,577.26a1.14,1.14,0,0,1,.92.93Z"/><path class="cls-1" d="M510.88,578.19a1.15,1.15,0,0,1,.93.92Z"/><path class="cls-1" d="M511.81,579.11a1.14,1.14,0,0,1,.92.93Z"/><path class="cls-1" d="M512.73,580l1.35.85Z"/><path class="cls-1" d="M398.92,466.27a1.13,1.13,0,0,1,.92.92Z"/><path class="cls-1" d="M399.84,467.19a1.16,1.16,0,0,1,.93.93Z"/><path class="cls-1" d="M400.77,468.12a1.13,1.13,0,0,1,.92.92Z"/><path class="cls-1" d="M401.69,469a1.15,1.15,0,0,1,.93.93Z"/><path class="cls-1" d="M402.62,470a1.13,1.13,0,0,1,.92.92C403.24,470.58,402.93,470.27,402.62,470Z"/><path class="cls-1" d="M403.54,470.89a1.15,1.15,0,0,1,.93.93Z"/><path class="cls-1" d="M404.47,471.82a1.15,1.15,0,0,1,.93.92Z"/><path class="cls-1" d="M405.39,472.74a1.14,1.14,0,0,1,.93.93Z"/><path class="cls-1" d="M406.32,473.67a1.15,1.15,0,0,1,.93.92Z"/><path class="cls-1" d="M407.25,474.59a1.14,1.14,0,0,1,.92.93Z"/><path class="cls-2" d="M398,464.33c-1.84-.92-3.06-2.55-4.47-4q-60.3-60.24-120.58-120.5a23.89,23.89,0,0,0-4.43-4c-1.24-1.35-2.43-2.76-3.73-4.06q-47-47-93.93-93.92c-1.19-1.19-2.27-2.48-3.4-3.72,1.41-.92,3-.47,4.5-.47q226.43,0,452.86,0c1.54,0,3.73-1,4.56.94.93,2.19-1,3.72-2.33,5.13-8.42,8.58-17,17-25.48,25.53Q561.83,305,522.07,344.74a33.31,33.31,0,0,1-6.26,5.42c-17.08,16.43-33.6,33.43-50.39,50.16Q435,430.62,404.64,461c-1.61,1.61-3,3.61-5.51,3.95A1.62,1.62,0,0,1,398,464.33Z"/><path class="cls-2" d="M629.15,466.18Q686.23,409,743.31,351.87c.75-.76,1.64-1.39,2.46-2.08.05,1.85.15,3.7.15,5.54q0,110,0,220.06c0,1.85,0,3.7.07,5.55l-167.18,0q-28.86,0-57.73,0c-1.93,0-4.05.61-5.69-1.08-.77-3,1.55-4.49,3.22-6.17Q537.19,555,555.9,536.41q33.23-33.17,66.42-66.36C624.19,468.19,625.72,465.43,629.15,466.18Z"/></svg>