<svg id="레이어_1" data-name="레이어 1" xmlns="http://www.w3.org/2000/svg" xmlns:xlink="http://www.w3.org/1999/xlink" viewBox="0 0 1000 1000"><defs><style>.cls-1{fill:url(#linear-gradient);}.cls-2{fill:url(#linear-gradient-2);}.cls-3{fill:url(#linear-gradient-3);}.cls-4{fill:url(#linear-gradient-4);}.cls-5{fill:url(#linear-gradient-5);}.cls-6{fill:url(#linear-gradient-6);}.cls-7{fill:url(#linear-gradient-7);}.cls-8{fill:url(#linear-gradient-8);}.cls-9{fill:url(#linear-gradient-9);}.cls-10{fill:url(#linear-gradient-10);}.cls-11{fill:url(#linear-gradient-11);}.cls-12{fill:url(#linear-gradient-12);}.cls-13{fill:url(#linear-gradient-13);}.cls-14{fill:url(#linear-gradient-14);}.cls-15{fill:url(#linear-gradient-15);}.cls-16{fill:url(#linear-gradient-16);}.cls-17{fill:url(#linear-gradient-17);}.cls-18{fill:url(#linear-gradient-18);}</style><linearGradient id="linear-gradient" x1="162.46" y1="207.99" x2="242.87" y2="207.99" gradientUnits="userSpaceOnUse"><stop offset="0" stop-color="#60c1bd"/><stop offset="0.43" stop-color="#519bd3"/><stop offset="1" stop-color="#6b5da6"/></linearGradient><linearGradient id="linear-gradient-2" x1="162.64" y1="257.01" x2="341.11" y2="257.01" xlink:href="#linear-gradient"/><linearGradient id="linear-gradient-3" x1="162.46" y1="494.96" x2="242.87" y2="494.96" xlink:href="#linear-gradient"/><linearGradient id="linear-gradient-4" x1="162.64" y1="494.96" x2="341.11" y2="494.96" xlink:href="#linear-gradient"/><linearGradient id="linear-gradient-5" x1="349.49" y1="494.96" x2="626.29" y2="494.96" xlink:href="#linear-gradient"/><linearGradient id="linear-gradient-6" x1="447.64" y1="494.96" x2="528.14" y2="494.96" xlink:href="#linear-gradient"/><linearGradient id="linear-gradient-7" x1="732.82" y1="494.96" x2="813.23" y2="494.96" xlink:href="#linear-gradient"/><linearGradient id="linear-gradient-8" x1="634.58" y1="494.96" x2="813.05" y2="494.96" xlink:href="#linear-gradient"/><linearGradient id="linear-gradient-9" x1="349.58" y1="258.99" x2="626.11" y2="258.99" xlink:href="#linear-gradient"/><linearGradient id="linear-gradient-10" x1="447.64" y1="209.78" x2="528.05" y2="209.78" xlink:href="#linear-gradient"/><linearGradient id="linear-gradient-11" x1="349.58" y1="730.93" x2="626.11" y2="730.93" xlink:href="#linear-gradient"/><linearGradient id="linear-gradient-12" x1="447.64" y1="780.13" x2="528.05" y2="780.13" xlink:href="#linear-gradient"/><linearGradient id="linear-gradient-13" x1="732.73" y1="207.89" x2="813.14" y2="207.89" xlink:href="#linear-gradient"/><linearGradient id="linear-gradient-14" x1="634.67" y1="257.1" x2="813.14" y2="257.1" xlink:href="#linear-gradient"/><linearGradient id="linear-gradient-15" x1="732.73" y1="779.95" x2="813.14" y2="779.95" xlink:href="#linear-gradient"/><linearGradient id="linear-gradient-16" x1="634.49" y1="730.93" x2="812.96" y2="730.93" xlink:href="#linear-gradient"/><linearGradient id="linear-gradient-17" x1="162.46" y1="780.04" x2="242.88" y2="780.04" xlink:href="#linear-gradient"/><linearGradient id="linear-gradient-18" x1="162.46" y1="730.84" x2="340.94" y2="730.84" xlink:href="#linear-gradient"/></defs><path class="cls-1" d="M202.67,248.19A40.21,40.21,0,1,0,162.46,208,40.2,40.2,0,0,0,202.67,248.19Z"/><path class="cls-2" d="M341.11,208a40.21,40.21,0,1,0-58.72,35.69,51.27,51.27,0,0,1,.19,26.59l-.13.07c-.57.3-1.12.62-1.67.94-.24.13-.48.26-.72.41-.52.31-1,.65-1.53,1-.25.17-.51.33-.75.51-.47.32-.92.67-1.37,1-.27.21-.55.41-.81.63-.41.33-.8.67-1.19,1s-.59.5-.88.77-.67.65-1,1-.63.61-.93.94-.55.62-.83.93-.66.74-1,1.12-.45.57-.67.86-.67.86-1,1.31l-.52.77c-.34.5-.68,1-1,1.51-.14.23-.27.47-.4.7-.33.55-.65,1.11-1,1.68l-.06.09a51.14,51.14,0,0,1-26.59.2,40.2,40.2,0,1,0-.61,37.81,51.37,51.37,0,0,1,27.85.21,39.3,39.3,0,0,0,4.49,6.42l0,0a40.61,40.61,0,0,0,5.55,5.34l.17.14c.65.51,1.32,1,2,1.47l0,0c.71.49,1.45,1,2.19,1.41h0q1,.62,2.1,1.17l.37.19c.7.35,1.4.68,2.12,1l.11.06c.77.33,1.55.63,2.34.91l.38.13c.65.23,1.31.43,2,.63l.57.16c.74.2,1.49.38,2.24.54l.16,0c.8.17,1.62.31,2.44.42l.63.08c.63.08,1.27.15,1.91.2l.7.05c.83,0,1.67.09,2.52.09h.15a40.21,40.21,0,0,0,40.05-40.2h0c0-.84,0-1.68-.08-2.52l-.06-.71c-.05-.64-.12-1.28-.2-1.91,0-.21,0-.42-.08-.63q-.17-1.23-.42-2.43c0-.11,0-.21-.07-.32-.15-.7-.32-1.39-.51-2.08-.06-.21-.12-.43-.19-.65-.18-.64-.38-1.27-.6-1.9l-.15-.43c-.28-.77-.57-1.53-.9-2.27-.05-.13-.11-.26-.17-.39-.27-.62-.56-1.23-.87-1.84l-.27-.52c-.35-.67-.71-1.33-1.1-2l-.07-.13c-.43-.71-.88-1.39-1.34-2.07l-.25-.36c-.4-.56-.81-1.11-1.23-1.64l-.3-.38a37.68,37.68,0,0,0-3.29-3.62l-.31-.3c-.52-.49-1-1-1.58-1.43l-.27-.24a40.71,40.71,0,0,0-4-2.94l-.38-.24c-.62-.4-1.26-.78-1.91-1.15l-.15-.09a51.21,51.21,0,0,1,.22-27.84A40.2,40.2,0,0,0,341.11,208Z"/><path class="cls-3" d="M187,532q.9.39,1.83.72a37.45,37.45,0,0,0,3.77,1.18A40.26,40.26,0,0,0,242.87,495h0A40.22,40.22,0,0,0,192.62,456c-1.28.33-2.54.72-3.77,1.17q-.93.35-1.83.72a40.22,40.22,0,0,0-24.56,37h0A40.21,40.21,0,0,0,187,532Z"/><path class="cls-4" d="M301.06,356.7h-.15c-.85,0-1.69,0-2.52.09l-.7.05c-.64.05-1.28.12-1.91.2l-.63.08c-.82.12-1.64.26-2.44.42l-.16,0c-.75.16-1.5.34-2.24.55l-.57.16c-.66.19-1.32.4-2,.62l-.38.13c-.79.28-1.57.59-2.34.92l-.11.05c-.72.31-1.42.64-2.12,1l-.37.19c-.71.37-1.41.75-2.1,1.16h0c-.74.45-1.48.92-2.19,1.42h0c-.68.47-1.35,1-2,1.48l-.17.13a40.61,40.61,0,0,0-5.55,5.34l0,0a39.3,39.3,0,0,0-4.49,6.42,51.5,51.5,0,0,1-27.85.22,40.21,40.21,0,1,0,.61,37.8,51.42,51.42,0,0,1,26.59.2l.06.09c.3.57.62,1.13,1,1.69.13.23.26.46.4.69.31.51.65,1,1,1.51.17.26.34.52.52.77.32.45.66.88,1,1.32.22.28.44.57.67.85s.64.75,1,1.13.54.62.83.93.62.63.93.94.66.66,1,1,.59.52.88.78.78.69,1.19,1c.26.21.54.41.81.62.45.35.9.7,1.37,1l.75.5c.51.34,1,.68,1.53,1l.72.41c.55.32,1.1.63,1.67.93l.13.07a51.27,51.27,0,0,1-.19,26.59,40.13,40.13,0,0,0-4.62,2.82l0,0a40.57,40.57,0,0,0-6,5.22l-.1.11a39.81,39.81,0,0,0-3.31,4l-.17.25c-.48.66-.93,1.34-1.36,2l-.07.11c-.46.74-.89,1.49-1.3,2.26l-.12.23c-.35.67-.68,1.35-1,2-.07.15-.13.3-.2.44a40.43,40.43,0,0,0-1.73,4.73c-.06.19-.11.38-.16.58-.19.67-.36,1.35-.52,2,0,.16-.07.31-.1.47-.18.82-.32,1.64-.45,2.48l-.06.53c-.09.68-.17,1.36-.22,2.05,0,.24,0,.47-.05.7-.06.86-.1,1.72-.1,2.59h0c0,.87,0,1.73.1,2.58,0,.24,0,.47.05.7,0,.69.13,1.37.22,2.05l.06.53c.13.84.27,1.67.45,2.49,0,.15.07.31.1.46.16.69.33,1.37.52,2,.05.19.1.38.16.58a40.27,40.27,0,0,0,1.73,4.72c.07.15.13.3.2.44.31.69.64,1.37,1,2l.12.24c.41.77.84,1.52,1.3,2.26a.61.61,0,0,0,.07.1c.43.7.88,1.37,1.36,2l.17.24a41.08,41.08,0,0,0,3.31,4l.1.1a40.63,40.63,0,0,0,6,5.23l0,0a38.7,38.7,0,0,0,4.62,2.81,51.27,51.27,0,0,1,.19,26.59l-.13.08c-.57.29-1.12.61-1.67.93l-.72.41c-.52.31-1,.65-1.53,1-.25.17-.51.33-.75.51-.47.33-.92.67-1.37,1-.27.21-.55.41-.81.63-.41.33-.8.67-1.19,1l-.88.77c-.34.32-.67.66-1,1s-.63.62-.93.94-.55.62-.83.93-.66.74-1,1.12-.45.57-.67.86-.67.87-1,1.31l-.52.78c-.34.49-.68,1-1,1.5-.14.23-.27.47-.4.7-.33.55-.65,1.11-1,1.68l-.06.09a51.14,51.14,0,0,1-26.59.2A40.2,40.2,0,1,0,238,612.5a51.12,51.12,0,0,1,13.52-1.82,51.74,51.74,0,0,1,14.33,2,39.3,39.3,0,0,0,4.49,6.42l0,0a40.61,40.61,0,0,0,5.55,5.34l.17.14c.65.51,1.32,1,2,1.48h0c.71.49,1.45,1,2.19,1.41l0,0c.69.4,1.39.79,2.1,1.16l.37.19c.7.35,1.4.69,2.12,1l.11.05c.77.33,1.55.63,2.34.92l.38.12c.65.23,1.31.44,2,.63l.57.16c.74.2,1.49.39,2.24.55l.16,0c.8.17,1.62.31,2.44.42l.63.08c.63.08,1.27.15,1.91.2l.7,0q1.25.09,2.52.09h.15A40.21,40.21,0,0,0,341.11,593h0c0-.84,0-1.68-.08-2.51l-.06-.72c-.05-.64-.12-1.27-.2-1.91,0-.21,0-.42-.08-.63q-.17-1.23-.42-2.43c0-.11,0-.21-.07-.32-.15-.7-.32-1.39-.51-2.08-.06-.21-.12-.43-.19-.64-.18-.64-.38-1.28-.6-1.91l-.15-.43c-.28-.77-.57-1.53-.9-2.27-.05-.13-.11-.26-.17-.38-.27-.63-.56-1.24-.87-1.85l-.27-.52c-.35-.67-.71-1.33-1.1-2l-.07-.13c-.43-.7-.88-1.39-1.34-2.07l-.25-.35q-.6-.84-1.23-1.65l-.3-.38a40.23,40.23,0,0,0-3.29-3.62l-.31-.3c-.52-.49-1-1-1.58-1.43l-.27-.24a40.71,40.71,0,0,0-4-2.94l-.38-.24c-.62-.4-1.26-.78-1.91-1.15l-.15-.09a51.21,51.21,0,0,1,.22-27.84,40.35,40.35,0,0,0,11.83-10.11l.07-.09a39.67,39.67,0,0,0,4.12-6.4l.18-.34c.35-.71.69-1.42,1-2.15l0-.09c.33-.77.64-1.56.92-2.35l.12-.37q.35-1,.63-2c.05-.19.11-.38.16-.57.2-.73.39-1.48.55-2.23l0-.16c.17-.81.31-1.62.43-2.44,0-.21.05-.43.08-.64.08-.63.14-1.26.19-1.9l.06-.71c.05-.83.08-1.67.08-2.51h0c0-.85,0-1.69-.08-2.52l-.06-.71c-.05-.63-.11-1.27-.19-1.9,0-.21,0-.42-.08-.63-.12-.82-.26-1.64-.43-2.44l0-.17c-.16-.75-.35-1.49-.55-2.23-.05-.19-.11-.38-.16-.57-.19-.66-.4-1.32-.63-2l-.12-.37c-.28-.8-.59-1.58-.92-2.35l0-.09c-.32-.73-.66-1.45-1-2.15l-.18-.35a40,40,0,0,0-4.12-6.39.86.86,0,0,1-.07-.1,40.5,40.5,0,0,0-11.83-10.11,51.21,51.21,0,0,1-.22-27.84l.15-.09c.65-.36,1.29-.75,1.91-1.14l.38-.25a40.71,40.71,0,0,0,4-2.94l.27-.23c.54-.47,1.06-.94,1.58-1.44l.31-.29a40.23,40.23,0,0,0,3.29-3.62l.3-.38q.63-.81,1.23-1.65l.25-.36c.46-.67.91-1.36,1.34-2.07,0,0,.05-.08.07-.13.39-.64.75-1.3,1.1-2l.27-.53c.31-.6.6-1.22.87-1.84.06-.13.12-.25.17-.38.33-.75.62-1.5.9-2.27l.15-.44c.22-.63.42-1.26.6-1.9.07-.22.13-.43.19-.65.19-.69.36-1.38.51-2.08,0-.1.05-.21.07-.32.17-.8.31-1.61.42-2.42,0-.21.06-.43.08-.64.08-.63.15-1.27.2-1.91l.06-.71c.05-.83.08-1.67.08-2.52h0A40.2,40.2,0,0,0,301.06,356.7Z"/><path class="cls-5" d="M586.24,356.7h-.16c-.84,0-1.68,0-2.51.09l-.7.05c-.65.05-1.28.12-1.92.2l-.62.08c-.82.12-1.64.26-2.45.42l-.15,0c-.76.16-1.5.34-2.24.55l-.57.16c-.66.19-1.32.4-2,.62l-.38.13c-.79.28-1.57.59-2.34.92l-.11.05c-.72.31-1.43.64-2.12,1l-.37.19c-.72.37-1.42.75-2.1,1.16h0c-.75.45-1.48.92-2.2,1.42h0c-.69.47-1.35,1-2,1.48l-.17.13a40,40,0,0,0-5.55,5.34l0,0A40.57,40.57,0,0,0,551,377.2a51.46,51.46,0,0,1-27.84.22,40.22,40.22,0,0,0-33.15-20.66l-1.26,0-.76,0h-.27c-.26,0-.51,0-.76,0l-1.27,0a40.2,40.2,0,0,0-33.14,20.66,51.5,51.5,0,0,1-27.85-.22,39.93,39.93,0,0,0-4.49-6.42l0,0a41.2,41.2,0,0,0-5.55-5.34l-.17-.13c-.65-.52-1.32-1-2-1.48h0c-.72-.5-1.45-1-2.2-1.42h0c-.69-.41-1.39-.79-2.1-1.16l-.37-.19c-.7-.36-1.4-.69-2.12-1l-.12-.05c-.77-.33-1.55-.64-2.34-.92l-.37-.13c-.65-.22-1.31-.43-2-.62l-.56-.16c-.74-.21-1.49-.39-2.24-.55l-.16,0c-.81-.16-1.62-.3-2.45-.42l-.62-.08c-.63-.08-1.27-.15-1.91-.2l-.7-.05c-.84,0-1.67-.09-2.52-.09h-.16a40.2,40.2,0,0,0-40.05,40.2h0c0,.85,0,1.69.09,2.52,0,.24,0,.47.05.71.06.64.12,1.28.2,1.91,0,.21.05.43.08.64.12.81.26,1.62.43,2.42,0,.11.05.22.07.32.15.7.32,1.39.51,2.08l.18.65c.19.64.39,1.27.61,1.9.05.15.09.29.15.44.27.77.57,1.52.89,2.27.06.13.12.25.17.38.28.62.57,1.24.88,1.84.09.18.17.35.27.53.35.66.71,1.32,1.09,2l.08.13c.42.71.87,1.4,1.34,2.07l.25.36q.6.84,1.23,1.65l.3.38a40.23,40.23,0,0,0,3.29,3.62c.1.1.2.2.31.29.51.5,1,1,1.58,1.44l.27.23a39.54,39.54,0,0,0,4,2.94c.12.09.25.17.38.25.62.39,1.26.78,1.9,1.14l.16.09a51.46,51.46,0,0,1-.22,27.84A40.5,40.5,0,0,0,358.17,470a.86.86,0,0,1-.07.1,40,40,0,0,0-4.12,6.39l-.18.35c-.36.7-.7,1.42-1,2.15l0,.09c-.33.77-.64,1.55-.92,2.35-.05.12-.09.24-.13.37-.22.65-.43,1.31-.62,2-.06.19-.11.38-.16.57-.21.74-.39,1.48-.55,2.23,0,.06,0,.11,0,.17-.16.8-.3,1.62-.42,2.44,0,.21-.05.42-.08.63-.08.63-.15,1.27-.2,1.9,0,.24,0,.47-.05.71-.05.83-.09,1.67-.09,2.52h0c0,.84,0,1.68.09,2.51,0,.24,0,.48.05.71.05.64.12,1.27.2,1.9,0,.21.05.43.08.64.12.82.26,1.63.42,2.44,0,0,0,.11,0,.16.16.75.34,1.5.55,2.23.05.19.1.38.16.57.19.67.4,1.33.62,2,0,.12.08.25.13.37.28.79.59,1.58.92,2.35l0,.09c.31.73.65,1.44,1,2.15l.18.34a39.67,39.67,0,0,0,4.12,6.4l.07.09A40.35,40.35,0,0,0,370,530a51.46,51.46,0,0,1,.22,27.84,1.29,1.29,0,0,1-.16.09c-.64.37-1.28.75-1.9,1.15l-.38.24a39.54,39.54,0,0,0-4,2.94l-.27.24c-.54.46-1.07.94-1.58,1.43l-.31.3a40.23,40.23,0,0,0-3.29,3.62c-.11.12-.2.25-.3.38q-.63.81-1.23,1.65l-.25.35c-.47.68-.92,1.37-1.34,2.07l-.08.13c-.38.64-.74,1.3-1.09,2-.1.17-.18.35-.27.52-.31.61-.6,1.22-.88,1.85l-.17.38c-.32.74-.62,1.5-.89,2.27-.06.14-.1.29-.15.43-.22.63-.42,1.27-.61,1.91l-.18.64c-.19.69-.36,1.38-.51,2.08,0,.11-.05.21-.07.32-.17.8-.31,1.61-.43,2.43,0,.21-.05.42-.08.63-.08.64-.14,1.27-.2,1.91,0,.24,0,.48-.05.72-.05.83-.09,1.67-.09,2.51h0a40.21,40.21,0,0,0,40.05,40.2h.16c.85,0,1.68,0,2.52-.09l.7,0c.64-.05,1.28-.12,1.91-.2l.62-.08c.83-.11,1.64-.25,2.45-.42l.16,0c.75-.16,1.5-.35,2.24-.55l.56-.16q1-.28,2-.63l.37-.12c.79-.29,1.57-.59,2.34-.92l.12-.05c.72-.31,1.42-.65,2.12-1l.37-.19c.71-.37,1.41-.76,2.1-1.16l0,0c.75-.45,1.48-.92,2.2-1.41h0c.68-.48,1.35-1,2-1.48l.17-.14a41.2,41.2,0,0,0,5.55-5.34l0,0a39.93,39.93,0,0,0,4.49-6.42,51.69,51.69,0,0,1,14.33-2,51.12,51.12,0,0,1,13.52,1.82,40.17,40.17,0,0,0,33.14,20.65l1.27.05.76,0H488l.76,0,1.26-.05A40.19,40.19,0,0,0,523.2,612.5a51.06,51.06,0,0,1,13.52-1.82,51.67,51.67,0,0,1,14.32,2,40.57,40.57,0,0,0,4.49,6.42l0,0a40,40,0,0,0,5.55,5.34l.17.14c.65.51,1.31,1,2,1.48h0c.72.49,1.45,1,2.2,1.41l0,0c.68.4,1.38.79,2.1,1.16l.37.19c.69.35,1.4.69,2.12,1l.11.05c.77.33,1.55.63,2.34.92l.38.12c.65.23,1.31.44,2,.63l.57.16c.74.2,1.48.39,2.24.55l.15,0c.81.17,1.63.31,2.45.42l.62.08c.64.08,1.27.15,1.92.2l.7,0c.83.06,1.67.09,2.51.09h.16a40.21,40.21,0,0,0,40-40.2h0c0-.84,0-1.68-.09-2.51,0-.24,0-.48-.05-.72,0-.64-.12-1.27-.2-1.91,0-.21-.05-.42-.08-.63q-.18-1.23-.42-2.43c0-.11-.05-.21-.08-.32-.15-.7-.32-1.39-.51-2.08-.05-.21-.12-.43-.18-.64-.19-.64-.39-1.28-.61-1.91-.05-.14-.09-.29-.14-.43-.28-.77-.58-1.53-.9-2.27,0-.13-.11-.26-.17-.38-.28-.63-.57-1.24-.87-1.85l-.27-.52c-.35-.67-.71-1.33-1.1-2a.83.83,0,0,1-.07-.13c-.43-.7-.88-1.39-1.34-2.07-.09-.12-.17-.24-.26-.35-.39-.56-.8-1.11-1.22-1.65l-.3-.38a41.79,41.79,0,0,0-3.29-3.62l-.31-.3c-.52-.49-1.05-1-1.59-1.43l-.27-.24a39.41,39.41,0,0,0-4-2.94l-.38-.24c-.63-.4-1.26-.78-1.91-1.15l-.15-.09a51,51,0,0,1-1.82-13.51,51.69,51.69,0,0,1,2-14.33,40.22,40.22,0,0,0,11.83-10.11l.08-.09a41.08,41.08,0,0,0,4.12-6.4c.06-.11.11-.23.17-.34.36-.71.7-1.42,1-2.15a.36.36,0,0,1,0-.09c.33-.77.63-1.56.92-2.35l.12-.37c.23-.65.43-1.31.63-2,0-.19.11-.38.16-.57.2-.73.38-1.48.54-2.23a.94.94,0,0,0,0-.16c.17-.81.31-1.62.42-2.44,0-.21.06-.43.08-.64.08-.63.15-1.26.2-1.9,0-.23,0-.47.05-.71.06-.83.09-1.67.09-2.51h0q0-1.27-.09-2.52c0-.24,0-.47-.05-.71,0-.63-.12-1.27-.2-1.9,0-.21-.05-.42-.08-.63-.11-.82-.25-1.64-.42-2.44a1,1,0,0,0,0-.17c-.16-.75-.34-1.49-.54-2.23,0-.19-.11-.38-.16-.57-.2-.66-.4-1.32-.63-2l-.12-.37c-.29-.8-.59-1.58-.92-2.35a.36.36,0,0,1,0-.09c-.32-.73-.66-1.45-1-2.15l-.17-.35a41.46,41.46,0,0,0-4.12-6.39l-.08-.1a40.37,40.37,0,0,0-11.83-10.11,51.67,51.67,0,0,1-2-14.32,51.12,51.12,0,0,1,1.82-13.52l.15-.09c.65-.36,1.28-.75,1.91-1.14l.38-.25a39.41,39.41,0,0,0,4-2.94l.27-.23c.54-.47,1.07-.94,1.59-1.44l.31-.29a41.79,41.79,0,0,0,3.29-3.62l.3-.38c.42-.54.83-1.09,1.22-1.65l.26-.36c.46-.67.91-1.36,1.34-2.07l.07-.13c.39-.64.75-1.3,1.1-2L622,415c.3-.6.59-1.22.87-1.84.06-.13.12-.25.17-.38.32-.75.62-1.5.9-2.27l.14-.44c.22-.63.42-1.26.61-1.9.06-.22.13-.43.18-.65.19-.69.36-1.38.51-2.08a3,3,0,0,0,.08-.32c.16-.8.3-1.61.42-2.42,0-.21,0-.43.08-.64.08-.63.15-1.27.2-1.91,0-.24,0-.47.05-.71q.09-1.24.09-2.52h0A40.2,40.2,0,0,0,586.24,356.7ZM567.76,557.23l-.13.08c-.57.29-1.12.61-1.68.93l-.71.41c-.52.31-1,.65-1.53,1-.25.17-.51.33-.76.51-.46.33-.91.67-1.36,1-.28.21-.55.41-.82.63s-.79.67-1.18,1-.59.51-.88.77-.67.66-1,1-.63.62-.94.94-.55.62-.82.93-.66.74-1,1.12-.44.57-.66.86-.68.87-1,1.31c-.18.26-.34.52-.52.78-.33.49-.67,1-1,1.5l-.41.7c-.32.55-.65,1.11-.95,1.68a.41.41,0,0,1-.05.09,51.14,51.14,0,0,1-26.59.2,40.2,40.2,0,0,0-33.7-21.8c-.47,0-.94,0-1.41,0l-.67,0h-.27c-.23,0-.45,0-.68,0-.47,0-.94,0-1.4,0A40.2,40.2,0,0,0,452,574.69a51.14,51.14,0,0,1-26.59-.2.41.41,0,0,0-.05-.09c-.3-.57-.62-1.13-.95-1.68-.14-.23-.26-.47-.4-.7q-.48-.76-1-1.5l-.52-.78c-.32-.44-.66-.88-1-1.31s-.43-.58-.66-.86-.65-.75-1-1.12-.55-.63-.83-.93-.62-.63-.93-.94-.66-.67-1-1-.58-.52-.87-.77-.78-.69-1.19-1c-.26-.22-.54-.42-.81-.63-.45-.35-.9-.69-1.37-1l-.75-.51c-.51-.34-1-.68-1.54-1l-.71-.41c-.55-.32-1.1-.64-1.67-.93l-.14-.08a51.14,51.14,0,0,1,.2-26.59,39.39,39.39,0,0,0,4.61-2.81l0,0a40.63,40.63,0,0,0,6-5.23l.1-.1a42.57,42.57,0,0,0,3.31-4l.17-.24c.47-.67.93-1.34,1.36-2l.07-.1c.45-.74.89-1.49,1.3-2.26,0-.08.07-.16.12-.24.35-.66.67-1.34,1-2,.06-.14.13-.29.19-.44a38.6,38.6,0,0,0,1.74-4.72c.05-.2.11-.39.16-.58q.29-1,.51-2c0-.15.08-.31.11-.46.17-.82.32-1.65.44-2.49,0-.17,0-.35.07-.53.09-.68.16-1.36.22-2.05,0-.23,0-.46.05-.7q.09-1.28.09-2.58h0c0-.87,0-1.73-.09-2.59,0-.23,0-.46-.05-.7-.06-.69-.13-1.37-.22-2.05,0-.17,0-.35-.07-.53-.12-.84-.27-1.66-.44-2.48,0-.16-.07-.31-.11-.47-.15-.68-.32-1.36-.51-2-.05-.2-.11-.39-.16-.58a38.74,38.74,0,0,0-1.74-4.73c-.06-.14-.13-.29-.19-.44-.32-.68-.64-1.36-1-2-.05-.08-.08-.16-.12-.23-.41-.77-.85-1.52-1.3-2.26l-.07-.11c-.43-.69-.89-1.37-1.36-2l-.17-.25a41.21,41.21,0,0,0-3.31-4l-.1-.11a40.57,40.57,0,0,0-6-5.22l0,0a40.87,40.87,0,0,0-4.61-2.82,51.14,51.14,0,0,1-.2-26.59l.14-.07c.57-.3,1.12-.61,1.67-.93l.71-.41c.53-.32,1-.66,1.54-1l.75-.5c.47-.33.92-.68,1.37-1,.27-.21.55-.41.81-.62.41-.33.79-.68,1.19-1s.59-.51.87-.78.67-.65,1-1,.63-.62.93-.94l.83-.93c.32-.38.66-.74,1-1.13s.44-.57.66-.85c.34-.44.68-.87,1-1.32.18-.25.35-.51.52-.77.34-.5.67-1,1-1.51.14-.23.26-.46.4-.69.33-.56.65-1.12.95-1.69a.41.41,0,0,0,.05-.09,51.42,51.42,0,0,1,26.59-.2A40.19,40.19,0,0,0,485.68,437c.46,0,.93,0,1.4.05l.68,0H488l.67,0c.47,0,.94,0,1.41-.05a40.19,40.19,0,0,0,33.7-21.81,51.42,51.42,0,0,1,26.59.2.41.41,0,0,1,.05.09c.3.57.63,1.13.95,1.69l.41.69c.31.51.65,1,1,1.51.18.26.34.52.52.77.32.45.66.88,1,1.32.22.28.43.57.66.85s.65.75,1,1.13l.82.93c.31.32.62.63.94.94s.66.66,1,1,.58.52.88.78.78.69,1.18,1l.82.62c.45.35.9.7,1.36,1l.76.5c.5.34,1,.68,1.53,1l.71.41c.56.32,1.11.63,1.68.93l.13.07a51.14,51.14,0,0,1-.2,26.59,40.87,40.87,0,0,0-4.61,2.82l0,0a40.57,40.57,0,0,0-6,5.22l-.1.11a38.51,38.51,0,0,0-3.31,4l-.18.25c-.47.66-.93,1.34-1.36,2l-.06.11c-.46.74-.89,1.49-1.3,2.26l-.12.23c-.35.67-.68,1.35-1,2l-.2.44a40.43,40.43,0,0,0-1.73,4.73c-.06.19-.11.38-.17.58-.18.67-.35,1.35-.51,2,0,.16-.07.31-.11.47-.17.82-.32,1.64-.44,2.48,0,.18,0,.36-.07.53-.09.68-.16,1.36-.21,2.05l-.06.7c-.05.86-.09,1.72-.09,2.59h0c0,.87,0,1.73.09,2.58l.06.7c.05.69.12,1.37.21,2.05,0,.18,0,.36.07.53.12.84.27,1.67.44,2.49,0,.15.08.31.11.46q.24,1,.51,2c.06.19.11.38.17.58a40.27,40.27,0,0,0,1.73,4.72c.06.15.13.3.2.44.31.69.64,1.37,1,2l.12.24c.41.77.84,1.52,1.3,2.26l.06.1c.43.7.89,1.37,1.36,2l.18.24a39.7,39.7,0,0,0,3.31,4l.1.1a40.63,40.63,0,0,0,6,5.23l0,0a39.39,39.39,0,0,0,4.61,2.81,51.14,51.14,0,0,1,.2,26.59Z"/><path class="cls-6" d="M503.59,457.91q-.9-.37-1.83-.72c-1.23-.45-2.49-.84-3.77-1.17a40.17,40.17,0,0,0-10.05-1.27h-.09A40.11,40.11,0,0,0,477.8,456a39.45,39.45,0,0,0-3.78,1.17c-.61.23-1.22.47-1.82.72a40.22,40.22,0,0,0-24.56,37h0a40.21,40.21,0,0,0,24.56,37c.6.26,1.21.5,1.82.72a36.84,36.84,0,0,0,3.78,1.18,40.58,40.58,0,0,0,10.05,1.26h.09A40.64,40.64,0,0,0,498,533.9a37.45,37.45,0,0,0,3.77-1.18q.93-.33,1.83-.72a40.2,40.2,0,0,0,24.55-37h0A40.21,40.21,0,0,0,503.59,457.91Z"/><path class="cls-7" d="M813.23,495a40.22,40.22,0,0,0-24.56-37c-.6-.25-1.21-.49-1.82-.72a39.45,39.45,0,0,0-3.78-1.17A40.22,40.22,0,0,0,732.82,495h0a40.26,40.26,0,0,0,50.25,38.94,36.84,36.84,0,0,0,3.78-1.18c.61-.22,1.22-.46,1.82-.72a40.21,40.21,0,0,0,24.56-37Z"/><path class="cls-8" d="M674.63,633.22h.16c.84,0,1.68,0,2.51-.09l.7,0c.65-.05,1.28-.12,1.92-.2l.62-.08c.82-.11,1.64-.25,2.44-.42l.16,0c.76-.16,1.5-.35,2.24-.55l.57-.16c.66-.19,1.32-.4,2-.63l.38-.12c.79-.29,1.57-.59,2.34-.92l.11-.05c.72-.31,1.43-.65,2.12-1l.37-.19c.72-.37,1.42-.76,2.1-1.16l0,0q1.13-.67,2.19-1.41h0c.69-.48,1.35-1,2-1.48l.17-.14a40,40,0,0,0,5.55-5.34l0,0a40.57,40.57,0,0,0,4.49-6.42,51.67,51.67,0,0,1,14.32-2,51.12,51.12,0,0,1,13.52,1.82,40.21,40.21,0,1,0-.61-37.81,51.14,51.14,0,0,1-26.59-.2.41.41,0,0,1-.05-.09c-.3-.57-.63-1.13-.95-1.68l-.41-.7c-.31-.51-.65-1-1-1.5-.17-.26-.33-.52-.51-.78-.32-.44-.66-.88-1-1.31s-.43-.58-.66-.86-.65-.75-1-1.12-.54-.63-.82-.93l-.94-.94c-.33-.33-.66-.67-1-1s-.58-.52-.88-.77-.78-.69-1.18-1-.55-.42-.82-.63c-.45-.35-.9-.69-1.36-1-.25-.18-.51-.34-.76-.51-.5-.34-1-.68-1.53-1l-.72-.41c-.55-.32-1.1-.64-1.67-.93l-.13-.08a51.14,51.14,0,0,1,.2-26.59,39.39,39.39,0,0,0,4.61-2.81l0,0a40.63,40.63,0,0,0,6-5.23l.1-.1a39.7,39.7,0,0,0,3.31-4l.18-.24c.47-.67.92-1.34,1.36-2l.06-.1c.46-.74.89-1.49,1.3-2.26l.12-.24c.35-.66.68-1.34,1-2,.07-.14.14-.29.2-.44a40.27,40.27,0,0,0,1.73-4.72c.06-.2.11-.39.17-.58q.27-1,.51-2c0-.15.07-.31.1-.46q.27-1.23.45-2.49c0-.17,0-.35.07-.53.09-.68.16-1.36.21-2.05l.06-.7c.05-.85.09-1.71.09-2.58h0c0-.87,0-1.73-.09-2.59l-.06-.7c-.05-.69-.12-1.37-.21-2.05,0-.17,0-.35-.07-.53-.12-.84-.27-1.66-.45-2.48,0-.16-.07-.31-.1-.47-.16-.68-.33-1.36-.51-2-.06-.2-.11-.39-.17-.58a40.43,40.43,0,0,0-1.73-4.73l-.2-.44c-.31-.68-.64-1.36-1-2l-.12-.23c-.41-.77-.84-1.52-1.3-2.26l-.06-.11c-.44-.69-.89-1.37-1.36-2l-.18-.25a38.51,38.51,0,0,0-3.31-4l-.1-.11a40.57,40.57,0,0,0-6-5.22l0,0a40.87,40.87,0,0,0-4.61-2.82,51.14,51.14,0,0,1-.2-26.59l.13-.07c.57-.3,1.12-.61,1.67-.93l.72-.41c.52-.32,1-.66,1.53-1l.76-.5c.46-.33.91-.68,1.36-1l.82-.62c.4-.33.79-.68,1.18-1s.59-.51.88-.78.67-.65,1-1l.94-.94.82-.93c.33-.38.66-.74,1-1.13s.44-.57.66-.85c.34-.44.68-.87,1-1.32.18-.25.34-.51.51-.77.34-.5.68-1,1-1.51l.41-.69c.32-.56.65-1.12.95-1.69a.41.41,0,0,1,.05-.09,51.42,51.42,0,0,1,26.59-.2,40.2,40.2,0,1,0,.61-37.8,51.46,51.46,0,0,1-27.84-.22,40.57,40.57,0,0,0-4.49-6.42l0,0a40,40,0,0,0-5.55-5.34l-.17-.13c-.65-.52-1.31-1-2-1.48h0c-.71-.5-1.44-1-2.19-1.42h0c-.68-.41-1.38-.79-2.1-1.16l-.37-.19c-.69-.36-1.4-.69-2.12-1l-.11-.05c-.77-.33-1.55-.64-2.34-.92l-.38-.13c-.65-.22-1.31-.43-2-.62l-.57-.16c-.74-.21-1.48-.39-2.24-.55l-.16,0c-.8-.16-1.62-.3-2.44-.42l-.62-.08c-.64-.08-1.27-.15-1.92-.2l-.7-.05c-.83,0-1.67-.09-2.51-.09h-.16a40.2,40.2,0,0,0-40,40.2h0q0,1.27.09,2.52c0,.24,0,.47.05.71,0,.64.12,1.28.2,1.91,0,.21.05.43.08.64.12.81.26,1.62.42,2.42a3,3,0,0,0,.08.32c.15.7.32,1.39.51,2.08,0,.22.12.43.18.65.19.64.39,1.27.6,1.9.06.15.1.29.15.44.28.77.58,1.52.9,2.27,0,.13.11.25.17.38.28.62.57,1.24.87,1.84l.27.53c.35.66.71,1.32,1.1,2,0,0,0,.09.07.13.43.71.88,1.4,1.34,2.07l.26.36c.39.56.8,1.11,1.22,1.65l.3.38a40.23,40.23,0,0,0,3.29,3.62l.31.29c.52.5,1.05,1,1.59,1.44l.27.23a39.41,39.41,0,0,0,4,2.94l.38.25c.63.39,1.26.78,1.91,1.14l.15.09a51.12,51.12,0,0,1,1.82,13.52,51.67,51.67,0,0,1-2,14.32A40.37,40.37,0,0,0,643.26,470l-.08.1a41.46,41.46,0,0,0-4.12,6.39l-.17.35c-.36.7-.7,1.42-1,2.15a.36.36,0,0,1,0,.09c-.33.77-.63,1.55-.92,2.35l-.12.37c-.23.65-.44,1.31-.63,2,0,.19-.11.38-.16.57-.2.74-.38,1.48-.54,2.23a1,1,0,0,0,0,.17c-.17.8-.31,1.62-.42,2.44,0,.21-.06.42-.08.63-.08.63-.15,1.27-.2,1.9,0,.24,0,.47-.05.71q-.09,1.24-.09,2.52h0c0,.84,0,1.68.09,2.51,0,.24,0,.48.05.71,0,.64.12,1.27.2,1.9,0,.21.05.43.08.64.11.82.25,1.63.42,2.44a.94.94,0,0,0,0,.16c.16.75.34,1.5.54,2.23,0,.19.11.38.16.57q.29,1,.63,2l.12.37c.29.79.59,1.58.92,2.35a.36.36,0,0,1,0,.09c.32.73.66,1.44,1,2.15.06.11.11.23.17.34a41.08,41.08,0,0,0,4.12,6.4l.08.09A40.22,40.22,0,0,0,655.09,530a51.69,51.69,0,0,1,2,14.33,51,51,0,0,1-1.82,13.51l-.15.09c-.65.37-1.28.75-1.91,1.15l-.38.24a39.41,39.41,0,0,0-4,2.94l-.27.24c-.54.46-1.07.94-1.59,1.43l-.31.3a40.23,40.23,0,0,0-3.29,3.62l-.3.38c-.42.54-.83,1.09-1.22,1.65-.09.11-.17.23-.26.35-.46.68-.91,1.37-1.34,2.07l-.07.13c-.39.64-.75,1.3-1.1,2l-.27.52c-.3.61-.59,1.22-.87,1.85-.06.12-.12.25-.17.38-.32.74-.62,1.5-.9,2.27-.05.14-.09.29-.15.43-.21.63-.41,1.27-.6,1.91-.06.21-.13.43-.18.64-.19.69-.36,1.38-.51,2.08,0,.11-.06.21-.08.32q-.24,1.2-.42,2.43c0,.21,0,.42-.08.63-.08.64-.15,1.27-.2,1.91,0,.24,0,.48-.05.72-.06.83-.09,1.67-.09,2.51h0A40.21,40.21,0,0,0,674.63,633.22Z"/><path class="cls-9" d="M389.79,348.23h0c.85,0,1.68,0,2.52-.08l.71-.06c.64-.05,1.28-.11,1.91-.2l.64-.08c.81-.11,1.62-.25,2.42-.42l.32-.07c.7-.15,1.39-.32,2.08-.51l.65-.19c.64-.18,1.27-.38,1.9-.6l.44-.15c.76-.27,1.52-.57,2.27-.89l.38-.18c.62-.27,1.23-.56,1.84-.87l.53-.27c.66-.35,1.32-.71,2-1.1l.13-.07c.71-.43,1.4-.87,2.07-1.34l.36-.25q.84-.6,1.65-1.23l.38-.3a40.23,40.23,0,0,0,3.62-3.29l.29-.31c.49-.51,1-1,1.43-1.58l.24-.27a40.71,40.71,0,0,0,2.94-4l.25-.38c.39-.62.78-1.26,1.14-1.91l.09-.15a51.21,51.21,0,0,1,27.84.22,40.5,40.5,0,0,0,10.11,11.83l.1.07a40,40,0,0,0,6.39,4.12l.35.18c.7.35,1.42.69,2.15,1l.09,0c.77.33,1.55.64,2.34.92l.38.13c.65.22,1.3.43,2,.62l.57.16c.74.2,1.48.39,2.23.55l.17,0c.8.16,1.62.3,2.44.42l.63.08c.63.08,1.26.14,1.9.19l.71.06q1.25.08,2.52.09h0c.84,0,1.68,0,2.51-.09l.71-.06c.64-.05,1.27-.11,1.9-.19l.63-.08c.83-.12,1.64-.26,2.44-.42l.17,0c.75-.16,1.5-.35,2.23-.55l.57-.16c.67-.19,1.33-.4,2-.62l.37-.13c.79-.28,1.58-.59,2.35-.92l.08,0c.73-.32,1.45-.66,2.16-1l.34-.18a39.15,39.15,0,0,0,6.39-4.12l.1-.07a40.35,40.35,0,0,0,10.11-11.83,51.21,51.21,0,0,1,27.84-.22l.09.15c.37.65.75,1.29,1.15,1.91l.24.38a40.71,40.71,0,0,0,2.94,4l.24.27c.46.54.94,1.07,1.43,1.58l.3.31a38.92,38.92,0,0,0,3.62,3.29l.38.3c.53.42,1.08.83,1.64,1.23l.36.25c.68.47,1.36.91,2.07,1.34l.13.07c.64.39,1.3.75,2,1.1l.52.27c.61.31,1.22.6,1.84.87l.39.18c.74.32,1.5.62,2.27.89l.43.15c.63.22,1.26.42,1.91.6l.64.19c.69.19,1.38.36,2.08.51l.32.07q1.2.25,2.43.42l.63.08c.63.09,1.27.15,1.91.2l.71.06c.84.05,1.68.08,2.52.08h0a40.21,40.21,0,0,0,40.2-40.05V308h0q0-1.27-.09-2.52c0-.23,0-.47,0-.7-.05-.64-.12-1.28-.2-1.91,0-.21,0-.42-.08-.62-.11-.83-.25-1.64-.42-2.45a.94.94,0,0,0,0-.16c-.16-.75-.34-1.5-.54-2.24-.05-.19-.11-.38-.16-.57-.2-.66-.4-1.32-.63-2,0-.12-.08-.25-.13-.37-.28-.8-.58-1.58-.91-2.34l-.06-.12c-.31-.72-.64-1.42-1-2.12l-.19-.37q-.55-1.06-1.17-2.1v0c-.45-.75-.92-1.48-1.41-2.2l0,0c-.47-.68-1-1.35-1.47-2l-.14-.17a40.61,40.61,0,0,0-5.34-5.55l0,0A39.93,39.93,0,0,0,605.6,273a51.37,51.37,0,0,1-.21-27.85,40.21,40.21,0,1,0-37.81.61,51.17,51.17,0,0,1-.2,26.6l-.09.05c-.57.3-1.13.62-1.68.95l-.7.4c-.51.31-1,.65-1.51,1l-.77.52c-.45.32-.88.66-1.31,1s-.58.44-.86.67-.75.64-1.12,1-.63.54-.93.83-.63.62-.94.93-.67.66-1,1-.52.59-.77.88-.69.78-1,1.19-.42.54-.63.81c-.35.45-.7.9-1,1.37-.18.24-.34.5-.51.75-.34.51-.68,1-1,1.53-.15.24-.28.48-.41.72-.32.55-.64,1.1-.93,1.67a1,1,0,0,0-.08.14,51.42,51.42,0,0,1-26.59-.2,41.5,41.5,0,0,0-2.81-4.62l0,0a40.57,40.57,0,0,0-5.22-6l-.11-.1a39.81,39.81,0,0,0-4-3.31l-.24-.17c-.67-.48-1.35-.93-2-1.36l-.1-.07c-.74-.46-1.49-.89-2.26-1.3l-.24-.12c-.66-.35-1.34-.68-2-1l-.44-.2a39.77,39.77,0,0,0-4.73-1.73l-.57-.16c-.68-.19-1.35-.36-2-.51l-.46-.11c-.82-.17-1.65-.32-2.49-.44l-.53-.07c-.68-.09-1.36-.16-2.05-.22l-.7,0q-1.28-.09-2.58-.09h0c-.87,0-1.73,0-2.59.09l-.7,0c-.69.06-1.37.13-2.05.22l-.53.07c-.84.12-1.66.27-2.48.44l-.47.11c-.68.15-1.36.32-2,.51l-.58.16a40.43,40.43,0,0,0-4.73,1.73l-.44.2c-.69.31-1.36.64-2,1l-.24.12c-.76.41-1.52.84-2.25,1.3l-.11.07c-.69.43-1.37.88-2,1.36l-.25.17a39.81,39.81,0,0,0-4,3.31l-.11.1a40.57,40.57,0,0,0-5.22,6l0,0a41.5,41.5,0,0,0-2.81,4.62,51.42,51.42,0,0,1-26.59.2c0-.05-.05-.09-.07-.14-.3-.57-.61-1.12-.93-1.67l-.41-.72c-.32-.52-.66-1-1-1.53-.17-.25-.33-.51-.5-.75-.33-.47-.68-.92-1-1.37-.21-.27-.41-.55-.62-.81s-.68-.8-1-1.19-.51-.59-.78-.88-.65-.67-1-1-.62-.63-.94-.93-.62-.55-.94-.83-.73-.66-1.12-1-.57-.45-.86-.67-.86-.67-1.31-1c-.25-.18-.52-.35-.77-.52-.5-.34-1-.68-1.51-1l-.69-.4c-.56-.33-1.12-.65-1.69-.95l-.09-.05a51.17,51.17,0,0,1-.2-26.6,40.2,40.2,0,1,0-37.8-.61,51.5,51.5,0,0,1-.22,27.85,39.93,39.93,0,0,0-6.42,4.49l0,0a40.61,40.61,0,0,0-5.34,5.55l-.14.17c-.51.65-1,1.32-1.47,2l0,0c-.49.72-1,1.45-1.41,2.2v0c-.41.69-.8,1.39-1.16,2.1l-.2.37c-.35.7-.68,1.4-1,2.12a.61.61,0,0,0-.05.12c-.33.76-.64,1.54-.92,2.34-.05.12-.09.25-.13.37-.22.65-.43,1.31-.62,2-.06.19-.11.38-.17.57-.2.74-.38,1.49-.54,2.24l0,.16c-.16.81-.3,1.62-.42,2.45,0,.2-.05.41-.08.62-.08.63-.15,1.27-.2,1.91,0,.23,0,.47-.05.7-.05.83-.09,1.67-.09,2.52h0c0,.05,0,.1,0,.16A40.2,40.2,0,0,0,389.79,348.23Z"/><path class="cls-10" d="M487.85,250h0a40.27,40.27,0,0,0,38.94-50.26c-.33-1.28-.73-2.54-1.18-3.77q-.33-.93-.72-1.83a40.2,40.2,0,0,0-37-24.55h0a40.21,40.21,0,0,0-37.05,24.55q-.37.9-.72,1.83c-.45,1.23-.84,2.49-1.17,3.77A40.23,40.23,0,0,0,487.85,250Z"/><path class="cls-11" d="M585.91,641.69h0c-.84,0-1.68,0-2.52.09l-.71.05c-.64,0-1.28.12-1.91.2l-.63.08q-1.23.18-2.43.42l-.32.08c-.7.15-1.39.32-2.08.51l-.64.18c-.65.19-1.28.39-1.91.61l-.43.14c-.77.28-1.53.58-2.27.9l-.39.17c-.62.28-1.23.57-1.84.87l-.52.27c-.67.35-1.33.72-2,1.1l-.13.08c-.71.42-1.39.87-2.07,1.34l-.36.25c-.56.39-1.11.8-1.64,1.22l-.38.3a41.93,41.93,0,0,0-3.62,3.29l-.3.31c-.49.52-1,1.05-1.43,1.59l-.24.27a40.58,40.58,0,0,0-2.94,4l-.24.38c-.4.63-.78,1.26-1.15,1.91l-.09.15a51.33,51.33,0,0,1-27.84-.21,40.22,40.22,0,0,0-10.11-11.83l-.1-.08a40.53,40.53,0,0,0-6.39-4.12L506,646q-1.06-.54-2.16-1l-.08,0c-.77-.33-1.56-.63-2.35-.92l-.37-.12c-.65-.23-1.31-.43-2-.63l-.57-.16c-.73-.2-1.48-.38-2.23-.54l-.17,0c-.8-.17-1.61-.3-2.44-.42L493,642c-.63-.08-1.26-.15-1.9-.2l-.71-.05c-.83-.06-1.67-.09-2.51-.09h0q-1.28,0-2.52.09l-.71.05c-.64,0-1.27.12-1.9.2l-.63.08c-.82.12-1.64.25-2.44.42l-.17,0c-.75.16-1.49.34-2.23.54l-.57.16c-.67.2-1.32.4-2,.63l-.38.12c-.79.29-1.57.59-2.34.92l-.09,0c-.73.32-1.45.66-2.15,1l-.35.17a41.46,41.46,0,0,0-6.39,4.12l-.1.08A40.37,40.37,0,0,0,452.8,662.2a51.33,51.33,0,0,1-27.84.21l-.09-.15c-.36-.65-.75-1.28-1.14-1.91l-.25-.38a40.58,40.58,0,0,0-2.94-4l-.24-.27c-.46-.54-.94-1.07-1.43-1.59l-.29-.31a43.47,43.47,0,0,0-3.62-3.29l-.38-.3c-.54-.42-1.09-.83-1.65-1.22l-.36-.25c-.67-.47-1.36-.92-2.07-1.34l-.13-.08c-.64-.38-1.3-.75-2-1.1l-.53-.27c-.61-.3-1.22-.59-1.84-.87l-.38-.17c-.75-.32-1.51-.62-2.27-.9l-.44-.14c-.63-.22-1.26-.42-1.9-.61l-.65-.18c-.69-.19-1.38-.36-2.08-.51l-.32-.08c-.8-.16-1.61-.3-2.42-.42l-.64-.08c-.63-.08-1.27-.15-1.91-.2l-.71-.05c-.84,0-1.67-.09-2.52-.09h0a40.2,40.2,0,0,0-40.2,40s0,.1,0,.15h0c0,.84,0,1.68.09,2.51,0,.24,0,.47.05.71,0,.64.12,1.28.2,1.91,0,.21.05.41.08.62.12.82.26,1.64.42,2.45,0,0,0,.1,0,.15.16.76.34,1.5.54,2.24.06.19.11.38.17.57.19.67.4,1.32.62,2,0,.13.08.25.13.38.28.79.59,1.57.92,2.34a.61.61,0,0,0,.05.12c.31.71.64,1.42,1,2.11l.2.38c.36.71.75,1.41,1.16,2.09v0c.45.75.92,1.48,1.41,2.2h0c.47.69,1,1.35,1.47,2,.05.06.09.12.14.17a40,40,0,0,0,5.34,5.55l0,0a40.57,40.57,0,0,0,6.42,4.49,51.46,51.46,0,0,1,.22,27.84,40.21,40.21,0,1,0,37.8-.61,51.14,51.14,0,0,1,.2-26.59l.09-.05c.57-.3,1.13-.63,1.69-.95l.69-.4c.51-.32,1-.66,1.51-1,.25-.18.52-.34.77-.52.45-.32.88-.66,1.31-1s.58-.43.86-.66.75-.65,1.12-1l.94-.82.94-.94c.33-.33.66-.66,1-1s.52-.58.78-.88.69-.78,1-1.18l.62-.82c.35-.45.7-.9,1-1.36l.5-.76c.34-.5.68-1,1-1.53.14-.23.27-.48.41-.71.32-.56.63-1.11.93-1.68,0,0,.05-.08.07-.13a51.14,51.14,0,0,1,26.59.2A42.31,42.31,0,0,0,455,705l0,0a40.57,40.57,0,0,0,5.22,6l.11.1a39.91,39.91,0,0,0,4,3.32l.25.17c.66.47,1.34.93,2,1.36l.11.07c.73.45,1.49.88,2.25,1.29l.24.12c.67.35,1.34.68,2,1l.44.2a40.43,40.43,0,0,0,4.73,1.73l.58.17c.67.18,1.35.36,2,.51l.47.11c.82.17,1.64.32,2.48.44l.53.07c.68.09,1.36.16,2.05.21l.7.06c.86,0,1.72.09,2.59.09h0c.87,0,1.73,0,2.58-.09l.7-.06c.69-.05,1.37-.12,2.05-.21l.53-.07c.84-.12,1.67-.27,2.49-.44l.46-.11c.69-.15,1.36-.33,2-.51l.57-.17a39.77,39.77,0,0,0,4.73-1.73l.44-.2c.69-.31,1.37-.64,2-1l.24-.12c.77-.41,1.52-.84,2.26-1.29l.1-.07c.69-.43,1.37-.89,2-1.36l.24-.17a39.91,39.91,0,0,0,4-3.32l.11-.1a40.57,40.57,0,0,0,5.22-6l0,0a42.31,42.31,0,0,0,2.81-4.61,51.14,51.14,0,0,1,26.59-.2.57.57,0,0,0,.08.13c.29.57.61,1.12.93,1.68.13.23.26.48.41.71.31.52.65,1,1,1.53.17.25.33.51.51.76.32.46.67.91,1,1.36.21.28.41.55.63.82s.67.79,1,1.18.5.59.77.88.66.67,1,1,.62.63.94.94.62.55.93.82.74.66,1.12,1,.57.44.86.66.86.68,1.31,1c.26.18.52.34.77.52.5.33,1,.67,1.51,1l.7.4c.55.32,1.11.65,1.68.95l.09.05a51.14,51.14,0,0,1,.2,26.59,40.2,40.2,0,1,0,37.81.61,51.33,51.33,0,0,1,.21-27.84,40.57,40.57,0,0,0,6.42-4.49l0,0a40,40,0,0,0,5.34-5.55c.05-.05.09-.11.14-.17.51-.65,1-1.31,1.47-2h0c.49-.72,1-1.45,1.41-2.2v0c.41-.68.8-1.38,1.17-2.09.06-.13.13-.25.19-.38.35-.69.68-1.4,1-2.11l.06-.12c.33-.77.63-1.55.91-2.34.05-.13.09-.25.13-.38.23-.65.43-1.3.63-2,.05-.19.11-.38.16-.57.2-.74.38-1.48.54-2.24a.83.83,0,0,0,0-.15c.17-.81.31-1.63.42-2.45,0-.21.06-.41.08-.62.08-.63.15-1.27.2-1.91,0-.24,0-.47,0-.71.06-.83.09-1.67.09-2.51h0v-.15A40.21,40.21,0,0,0,585.91,641.69Z"/><path class="cls-12" d="M487.85,739.93h0a40.22,40.22,0,0,0-38.94,50.25,39.45,39.45,0,0,0,1.17,3.78c.23.61.47,1.22.72,1.82a40.22,40.22,0,0,0,37.05,24.56h0a40.21,40.21,0,0,0,37-24.56c.26-.6.5-1.21.72-1.82a39.49,39.49,0,0,0,1.18-3.78,40.26,40.26,0,0,0-38.94-50.25Z"/><path class="cls-13" d="M772.93,248.1a40.21,40.21,0,1,0-40.2-40.2A40.2,40.2,0,0,0,772.93,248.1Z"/><path class="cls-14" d="M674.87,346.34h0c.84,0,1.68,0,2.51-.09l.72-.05c.64-.05,1.27-.12,1.91-.2l.63-.08q1.23-.18,2.43-.42l.32-.08c.7-.15,1.39-.32,2.08-.51l.64-.18c.64-.19,1.28-.39,1.91-.61l.43-.14c.77-.28,1.53-.58,2.27-.9l.38-.17c.63-.28,1.24-.57,1.85-.87l.52-.27c.67-.35,1.33-.72,2-1.1l.13-.08c.7-.42,1.39-.87,2.07-1.34.12-.08.24-.16.35-.25q.84-.58,1.65-1.23l.38-.29a43.47,43.47,0,0,0,3.62-3.29l.3-.32c.49-.51,1-1,1.43-1.58l.23-.27a40.68,40.68,0,0,0,3-4l.24-.38c.4-.63.78-1.26,1.14-1.91l.1-.15a51.33,51.33,0,0,1,27.84.21,40.2,40.2,0,1,0-.64-38.22,51.14,51.14,0,0,1-26.59.2,1,1,0,0,0-.08-.14c-.29-.56-.61-1.12-.93-1.67-.14-.23-.27-.48-.41-.71q-.48-.78-1-1.53c-.17-.25-.33-.51-.51-.76-.33-.46-.67-.91-1-1.37-.21-.27-.41-.54-.63-.81s-.67-.79-1-1.18-.51-.6-.77-.88-.66-.67-1-1-.62-.63-.94-.94-.62-.55-.93-.82-.74-.66-1.12-1-.57-.44-.86-.66-.87-.68-1.31-1l-.78-.52c-.49-.33-1-.67-1.5-1l-.7-.4c-.55-.32-1.11-.65-1.68-.95l-.1-.05a51.27,51.27,0,0,1-.19-26.59,40.2,40.2,0,1,0-37.81-.61,51.21,51.21,0,0,1-.22,27.84,41,41,0,0,0-6.41,4.49l0,0a40.12,40.12,0,0,0-5.35,5.55l-.13.17c-.51.65-1,1.31-1.48,2v0c-.49.72-1,1.45-1.41,2.2l0,0c-.4.69-.79,1.39-1.16,2.1-.06.13-.13.25-.19.38-.35.69-.69,1.4-1,2.11a.61.61,0,0,1-.05.12c-.33.77-.63,1.55-.92,2.34l-.12.38c-.23.65-.44,1.3-.63,2,0,.19-.11.38-.16.57-.2.73-.39,1.48-.55,2.24l0,.15c-.17.81-.31,1.63-.43,2.45,0,.21-.05.41-.07.62-.08.63-.15,1.27-.2,1.91l-.06.7c0,.84-.08,1.68-.08,2.52h0v.16A40.21,40.21,0,0,0,674.87,346.34Z"/><path class="cls-15" d="M772.93,739.75A40.21,40.21,0,1,0,813.14,780,40.2,40.2,0,0,0,772.93,739.75Z"/><path class="cls-16" d="M693.15,717.6c.57-.29,1.12-.61,1.68-.93.23-.13.48-.26.71-.41.52-.31,1-.65,1.53-1,.25-.17.51-.33.76-.51.46-.32.91-.67,1.36-1,.28-.21.55-.41.82-.63s.79-.67,1.18-1,.59-.5.88-.77.67-.66,1-1,.63-.62.94-.94.55-.62.82-.93.66-.74,1-1.12.44-.57.66-.86.68-.86,1-1.31c.18-.26.34-.52.52-.77.33-.5.67-1,1-1.51l.41-.7c.32-.55.65-1.11,1-1.68a.41.41,0,0,1,0-.09,51.14,51.14,0,0,1,26.59-.2,40.2,40.2,0,1,0,.61-37.81,51.33,51.33,0,0,1-27.84-.21,40.57,40.57,0,0,0-4.49-6.42l0,0a40,40,0,0,0-5.55-5.34l-.17-.14c-.65-.51-1.31-1-2-1.47v0c-.72-.49-1.45-1-2.2-1.41h0q-1-.61-2.1-1.17l-.37-.19c-.69-.35-1.4-.68-2.11-1l-.12-.06c-.77-.33-1.55-.63-2.34-.91l-.38-.13c-.65-.23-1.3-.43-2-.63l-.57-.16c-.74-.2-1.48-.38-2.24-.54l-.15,0c-.81-.17-1.63-.31-2.45-.42l-.62-.08c-.64-.08-1.27-.15-1.92-.2l-.7-.05c-.83-.06-1.67-.09-2.51-.09h-.16a40.21,40.21,0,0,0-40,40.2h0q0,1.26.09,2.52c0,.23,0,.47,0,.71,0,.64.12,1.28.2,1.91,0,.21,0,.42.08.63q.18,1.23.42,2.43c0,.11,0,.21.08.32.15.7.32,1.39.51,2.08.05.21.12.43.18.64.19.65.39,1.28.61,1.91,0,.14.09.29.14.43.28.77.58,1.53.9,2.27,0,.13.11.26.17.39.28.62.57,1.23.87,1.84l.27.52c.35.67.72,1.33,1.1,2a.83.83,0,0,1,.07.13c.43.71.88,1.39,1.34,2.07l.26.36c.39.56.8,1.11,1.22,1.64l.3.38a40.37,40.37,0,0,0,3.29,3.62l.31.3c.52.49,1,1,1.59,1.43l.27.24a39.41,39.41,0,0,0,4,2.94l.38.24c.63.4,1.26.78,1.91,1.15l.15.09A51.06,51.06,0,0,1,657,730.59a51.67,51.67,0,0,1-2,14.32,40.2,40.2,0,1,0,38.22-.64,51.14,51.14,0,0,1-.2-26.59Z"/><path class="cls-17" d="M202.67,739.84A40.21,40.21,0,1,0,242.88,780,40.21,40.21,0,0,0,202.67,739.84Z"/><path class="cls-18" d="M300.73,641.6h0c-.85,0-1.69,0-2.52.09l-.71,0c-.64,0-1.28.12-1.91.2l-.64.08q-1.23.18-2.43.42l-.31.08c-.7.15-1.4.32-2.08.51l-.65.18c-.64.19-1.27.39-1.9.61l-.44.14c-.77.28-1.52.58-2.27.9l-.38.17c-.62.28-1.24.57-1.84.87l-.53.27c-.66.35-1.32.72-2,1.1l-.13.08c-.7.42-1.39.87-2.07,1.34l-.35.25q-.84.59-1.65,1.23l-.38.29a43.47,43.47,0,0,0-3.62,3.29l-.3.32c-.49.51-1,1-1.43,1.58l-.23.27a40.58,40.58,0,0,0-2.94,4l-.25.38c-.4.63-.78,1.26-1.14,1.91l-.09.15a51.37,51.37,0,0,1-27.85-.21,40.2,40.2,0,1,0,.64,38.22,51.14,51.14,0,0,1,26.59-.2l.08.13c.29.57.61,1.13.93,1.68.14.23.27.48.41.71.32.52.66,1,1,1.53l.5.76c.33.46.68.91,1,1.37l.62.81c.33.4.68.79,1,1.18s.51.6.77.88.66.67,1,1l.94.94c.3.28.62.55.93.82s.74.66,1.13,1,.57.44.85.66c.44.34.87.68,1.32,1,.25.18.51.34.77.52.5.33,1,.67,1.51,1l.69.4c.56.32,1.11.65,1.69,1l.09,0a51.42,51.42,0,0,1,.2,26.59,40.2,40.2,0,1,0,37.8.61,51.21,51.21,0,0,1,.22-27.84,40.57,40.57,0,0,0,6.42-4.49l0,0a40,40,0,0,0,5.34-5.55l.13-.17c.51-.65,1-1.31,1.48-2v0c.5-.72,1-1.45,1.42-2.2v0c.41-.69.79-1.39,1.16-2.1l.19-.38c.35-.69.69-1.4,1-2.11a.61.61,0,0,0,.05-.12c.33-.77.64-1.55.92-2.34,0-.12.08-.25.13-.38.22-.65.43-1.3.62-2,.06-.19.11-.38.16-.57.2-.74.39-1.48.55-2.24a.83.83,0,0,1,0-.15c.16-.81.3-1.63.42-2.45,0-.21.05-.41.08-.62.08-.63.14-1.27.2-1.91,0-.24,0-.47.05-.7q.07-1.26.09-2.52h0s0-.1,0-.15A40.21,40.21,0,0,0,300.73,641.6Z"/></svg>