<svg id="레이어_1" data-name="레이어 1" xmlns="http://www.w3.org/2000/svg" viewBox="0 0 1000 1000"><defs><style>.cls-1{fill:#96d3d6;}.cls-2{fill:#324b6f;}.cls-3{fill:#33bdea;opacity:0.61;}</style></defs><polygon class="cls-1" points="491.79 507.84 491.79 804.05 788 507.84 491.79 507.84"/><polygon class="cls-2" points="504.09 228.05 212 520.14 504.09 520.14 504.09 228.05"/><polygon class="cls-1" points="571.29 228.05 212 587.34 212 795.84 779.79 228.05 571.29 228.05"/><polygon class="cls-3" points="788 804.05 788 507.84 491.79 804.05 788 804.05"/><polygon class="cls-3" points="788 804.05 788 507.84 491.79 804.05 788 804.05"/><polygon class="cls-2" points="788 804.05 788 507.84 491.79 804.05 788 804.05"/><polygon class="cls-3" points="423.22 804.05 788 439.27 788 228.05 779.79 228.05 212 795.84 212 804.05 423.22 804.05"/><polygon class="cls-2" points="423.22 804.05 788 439.27 788 228.05 779.79 228.05 212 795.84 212 804.05 423.22 804.05"/><polygon class="cls-3" points="212 520.14 504.09 228.05 212 228.05 212 520.14"/><polygon class="cls-3" points="212 520.14 504.09 228.05 212 228.05 212 520.14"/><polygon class="cls-1" points="212 520.14 504.09 228.05 212 228.05 212 520.14"/></svg>