<svg id="레이어_1" data-name="레이어 1" xmlns="http://www.w3.org/2000/svg" viewBox="0 0 1000 1000"><defs><style>.cls-1{fill:#F76F8E;}</style></defs><path class="cls-1" d="M788.7,298.83c-1.17-1.6-2.34-3.2-3.53-4.79a8.46,8.46,0,0,0-12.75-.92L397.55,668c-20.87,4.74-21-11.73-20.22-18.71L755.4,271.21a8.43,8.43,0,0,0,.11-11.83c-1.39-1.43-2.8-2.85-4.21-4.26a8.43,8.43,0,0,0-11.9,0l-36.51,36.51c-20.81,4.36-20.31-13-19.44-19.5l34.4-34.4A8.45,8.45,0,0,0,717,225.1l-.72-.55a8.42,8.42,0,0,0-11.08.75l-193,193c-21,3.54-18.62-16.48-17.78-21.15l185-185a8.44,8.44,0,0,0-1.77-13.29q-2.64-1.53-5.31-3a8.45,8.45,0,0,0-10.08,1.41L265,594.57c-20.83,4-19.55-14.48-18.65-20.28L631.44,189.16a8.45,8.45,0,0,0-2.91-13.85q-3-1.16-6-2.27a8.48,8.48,0,0,0-8.92,1.94L364.82,423.73c-25.79,6.95-19.56-19.37-19.56-19.37L576.61,173a8.44,8.44,0,0,0-4.25-14.23l-1.05-.22a8.45,8.45,0,0,0-7.69,2.3L496,228.52c-20.81,4.25-20.1-13.4-19.22-19.72l42.71-42.7a8.44,8.44,0,0,0-5.62-14.41q-4.08-.16-8.19-.22a8.4,8.4,0,0,0-6.08,2.48L234.29,419.21c-25.54,6.75-19.35-19.42-19.35-19.42l-28,28c22.46-3.26,19.52,17.5,19.16,19.62l-60,60a8.44,8.44,0,0,0-2.47,6.08q.06,4.11.22,8.19a8.44,8.44,0,0,0,14.4,5.62L448.38,237.16c19.14-1.74,19.73,13.7,19.25,19.68L153,571.46a8.45,8.45,0,0,0-2.3,7.69c.07.35.14.7.22,1.06a8.44,8.44,0,0,0,14.23,4.24L315.69,433.93l1.54-1.54c23.66-3.43,19.12,19.8,19.12,19.81L167.14,621.41a8.47,8.47,0,0,0-1.94,8.92c.74,2,1.49,4,2.27,6a8.44,8.44,0,0,0,13.84,2.91l36.1-36.1c19.13-2,20.15,12.88,19.74,19.19l-47.76,47.77A8.45,8.45,0,0,0,188,680.21q1.49,2.67,3,5.32a8.45,8.45,0,0,0,13.29,1.76L464.7,426.86c19.15-2.34,20.77,11.76,20.47,18.46L217.46,713a8.44,8.44,0,0,0-.75,11.09l.55.72a8.44,8.44,0,0,0,12.68.84L655.29,300.34c19.16-1.65,19.56,14,19.06,19.87l-427,427a8.43,8.43,0,0,0,0,11.9c1.41,1.41,2.83,2.82,4.26,4.21a8.43,8.43,0,0,0,11.83-.11l86.45-86.46c19.27-1.33,19,15.3,18.43,20.51l-83,83A8.46,8.46,0,0,0,286.2,793c1.59,1.19,3.18,2.37,4.79,3.53a8.44,8.44,0,0,0,10.92-.87L787.83,309.75A8.45,8.45,0,0,0,788.7,298.83Z"/><path class="cls-1" d="M856.37,506.48A8.44,8.44,0,0,0,842,500.57l-197,197c-20.8,4.13-19.9-13.78-19-19.93L848.9,454.7a8.42,8.42,0,0,0,2.36-7.35q-.62-3.57-1.29-7.12a8.45,8.45,0,0,0-14.27-4.38l-177,177c-20.82,4-19.6-14.38-18.7-20.24L834.29,398.34a8.49,8.49,0,0,0,2-8.82q-1.08-3.06-2.22-6.11a8.44,8.44,0,0,0-13.88-3l-361.9,361.9c-20.8,4.06-19.75-14.06-18.85-20.07L812.54,349.12a8.46,8.46,0,0,0,1.46-10l-.45-.83a8.45,8.45,0,0,0-13.4-1.94L328.51,808a8.45,8.45,0,0,0,1.95,13.4l.83.44a8.45,8.45,0,0,0,10-1.46l69.45-69.45c19.13-1.9,20,13.17,19.56,19.37L372.57,828a8.44,8.44,0,0,0,3,13.88c2,.75,4.06,1.49,6.11,2.21a8.49,8.49,0,0,0,8.82-2L611.2,621.42c19.13-2,20.12,13,19.7,19.23L428,843.54a8.45,8.45,0,0,0,4.38,14.27c2.36.45,4.74.88,7.12,1.29a8.37,8.37,0,0,0,7.34-2.36L597.4,706.2c19.13-1.84,19.89,13.38,19.43,19.49L492.73,849.8a8.44,8.44,0,0,0,5.91,14.41H500a8.38,8.38,0,0,0,5.91-2.48L752.85,614.82c19.17-1.58,19.43,14.3,18.91,20l-208,208A8.45,8.45,0,0,0,571.48,857q5.37-1.1,10.7-2.35a8.44,8.44,0,0,0,4-2.26L695,743.65c19.37-1.15,18.63,16.13,18.06,20.87L684.5,793.07c-7.16,7.17,2.09,18.61,10.56,13.06A359.33,359.33,0,0,0,727,782.59a8.37,8.37,0,0,0,.62-.57l46.59-46.58q.3-.3.57-.63a361.32,361.32,0,0,0,23.54-31.91c5.55-8.47-5.9-17.72-13.06-10.56l-42.44,42.44c-20.92,5-21.43-11.06-20.66-18.27L844.59,594.05a8.44,8.44,0,0,0,2.26-4q1.24-5.32,2.35-10.7A8.45,8.45,0,0,0,835,571.64l-34.5,34.5c-20.81,4.43-20.47-12.72-19.6-19.33l73-73a8.39,8.39,0,0,0,2.47-5.92v-1.37Z"/><path class="cls-1" d="M163.66,450.92,443.07,171.5a8.44,8.44,0,0,0-7.51-14.27c-3.48.63-7,1.32-10.41,2.06a8.45,8.45,0,0,0-4.2,2.29L153.74,428.79a8.45,8.45,0,0,0-2.29,4.2q-1.11,5.19-2.06,10.42A8.45,8.45,0,0,0,163.66,450.92Z"/><path class="cls-1" d="M205.58,338l63.2-63.2c23.45-3.29,19,19.82,19,19.82l28.46-28.46c-24.54,6.61-20.09-16.89-19.6-19.18l33.6-33.59c7-7-1.72-18.25-10.29-13.23A358.22,358.22,0,0,0,192.35,327.74C187.33,336.31,198.55,345.05,205.58,338Z"/></svg>