<svg id="레이어_1" data-name="레이어 1" xmlns="http://www.w3.org/2000/svg" viewBox="0 0 1000 1000"><defs><style>.cls-1{fill:#0ACDFF;}.cls-2{fill:#fff;}</style></defs><circle class="cls-1" cx="500" cy="500" r="352.37"/><path class="cls-2" d="M623.88,422.53v-56a45.28,45.28,0,1,0-40.58-.06v56.08a125.77,125.77,0,0,0-37,12.1L389.57,320a54.51,54.51,0,1,0-56.44,41.08,54.4,54.4,0,0,0,32-7.88L515,457.18a126.58,126.58,0,0,0-13.14,165.55l-42.11,40.06a37.42,37.42,0,1,0,22.2,21l43.32-36.87a126.06,126.06,0,0,0,81.63,27.16c66.17-1.64,120.4-54.82,123.25-120.95A126.62,126.62,0,0,0,623.88,422.53Zm-17.68,203a78,78,0,1,1,75.43-75.42A78,78,0,0,1,606.2,625.48Z"/></svg>