<svg id="레이어_1" data-name="레이어 1" xmlns="http://www.w3.org/2000/svg" viewBox="0 0 1000 1000"><defs><style>.cls-1{fill:#00a0e9;fill-rule:evenodd;}</style></defs><path class="cls-1" d="M713.15,286.68a83.18,83.18,0,0,1,0,117.88l-.14.13a83.26,83.26,0,0,1-118,.12c-63-63-127.5-62.94-190.45,0-31.82,31.81-82.95,32.56-115.44,2.58l-7.42-7.69a83.56,83.56,0,0,1,123-112.91c63,63,127.49,62.95,190.44,0a83.39,83.39,0,0,1,118-.12Z"/><path class="cls-1" d="M737.58,654.21l.21-.21-.21.21Zm-475.62,0-.18.19.18-.19Zm2,17.19a82.91,82.91,0,0,0,18.65,37.78l5.45,5.63a83.45,83.45,0,0,0,57.57,23c.94.07,1.87.16,2.79.25a85.24,85.24,0,0,0,56.06-24.84A190,190,0,0,1,437,686.79c41.62-27.51,83.89-27.47,125.88.07a202.8,202.8,0,0,1,32,26.41,84.78,84.78,0,0,0,56.79,24.83c.46-.46,1.42-.41,2.37-.36a83.25,83.25,0,0,0,83.53-83.53l.21-.21c-.23-.78.05-1-.19-1.82a82.77,82.77,0,0,0-24.58-57h0a83.38,83.38,0,0,0-118,.13L593,597.32A217,217,0,0,1,563,622.21c-42.17,27-84.47,27-125.94,0a204.14,204.14,0,0,1-30.5-24.92l-2-2c-32.24-32.24-85.55-32.33-118,.12A83.22,83.22,0,0,0,262,654.24l-.18.19A89,89,0,0,0,263.92,671.43Z"/><path class="cls-1" d="M559.06,558.67c15.85-15.85-13.65,24.74-59.17,24.91.93.07,1.87.15,2.79.24A85.2,85.2,0,0,0,558.74,559a189.68,189.68,0,0,1,32.54-26.5c41.61-27.5,83.89-27.47,125.88.07a202.89,202.89,0,0,1,32,26.42A84.72,84.72,0,0,0,806,583.79c.46-.46,1.41-.4,2.36-.34a83.6,83.6,0,0,0,83.85-82.84c-.44-.57-.38-.63-.32-.69a82.52,82.52,0,0,0-24.56-59.07h0a83.38,83.38,0,0,0-118,.12l-2,2a217.3,217.3,0,0,1-30,25c-42.16,27.06-84.47,27-125.94,0A206.25,206.25,0,0,1,562.93,445c-1.41-1.61-2.88-3.17-3.88-4.18l-.51-.5a82,82,0,0,0-53.8-23.79c-1.84-.17-3.15.13-4.95-.08a14.09,14.09,0,0,1-4.8-.24c-19.52,1.38-39.35,9.12-54.46,24.23-10.76,10.76-21.12,20.12-32.1,27.06-41.55,27.45-83.81,27.38-125.8-.14a205,205,0,0,1-32.54-26.91,83.67,83.67,0,0,0-55.42-24.19c-1.12.12-2.24.23-3.34.32a83.34,83.34,0,0,0-63.72,137.28l6.92,7.19a83.62,83.62,0,0,0,115.94-2.08l3.49-3.5a195.16,195.16,0,0,1,28.43-23.39c42.23-27.11,84.56-27.12,126-.07a200.77,200.77,0,0,1,28.95,23.45l.51.5c1,1,2,2,3,3,32.25,32.25,85.4,32.5,118-.12Z"/><path class="cls-1" d="M500,275.12c45.74-.39,83.14-37.8,83.53-83.53A83.58,83.58,0,1,0,500,275.12Z"/><path class="cls-1" d="M583.29,808.51a83.72,83.72,0,0,0-83.63-83.63c-45.74.39-83.15,37.8-83.53,83.53a83.58,83.58,0,0,0,167.16.1Z"/></svg>