<svg id="레이어_1" data-name="레이어 1" xmlns="http://www.w3.org/2000/svg" viewBox="0 0 1000 1000"><defs><style>.cls-1{fill:#7C90A0;}.cls-2{fill:#747274;}</style></defs><path class="cls-1" d="M374.56,783.05c-177,.57-296.94-190.12-218-347.94,26.22-52.45,55.13-103.61,84.35-154.48,17.92-31.19,47.52-39.46,75.94-24.5s36.42,43.66,19,77c-23.92,45.9-50.14,90.59-74.4,136.32C225.11,538,243.71,619.71,302.27,652.38c75.07,41.9,152.28,21.14,194.86-53.21,24.61-43,47-87.2,72.09-129.86C593.28,428.42,641.29,421.93,666,455c12.56,16.74,17,35,6.08,54.78-30,54.36-58.13,109.92-90.39,162.93C539.31,742.37,460.12,782.78,374.56,783.05Z"/><path class="cls-2" d="M867.82,496c2.72,36-9.38,74.24-28.76,110.3-24.54,45.67-50,90.87-75.38,136.07-18.68,33.22-48.29,43.37-77.85,27.36-29-15.72-37.37-46.46-19.23-80.65,24.85-46.83,53.09-91.9,77-139.17,44.58-88-9.65-188.55-106.74-197.25-53.41-4.78-97.76,15.92-126,62.72-26.73,44.36-50.64,90.41-75.87,135.68-12.11,21.73-25.07,40.72-55,39.68-41.31-1.43-68.88-36.14-50.68-72.78,30.21-60.83,60.61-122.47,99.18-178,60.95-87.8,178.35-119.29,281.62-83.39C804.31,289.25,868.76,384.8,867.82,496Z"/></svg>