<svg id="레이어_1" data-name="레이어 1" xmlns="http://www.w3.org/2000/svg" viewBox="0 0 1000 1000"><defs><style>.cls-1{fill:#32E875;}</style></defs><path class="cls-1" d="M503.21,152.28c58,0,95.95,34.34,102.53,89,13.69,113.52,59,159.31,171.58,173.23,59.55,7.36,93.32,46.33,91.09,105.09-1.94,50.94-40.93,88.3-95.72,91.72-98.19,6.14-155.5,62.94-165.86,164.37-6.21,60.84-40.53,96.39-94.76,98.13-53.52,1.72-90.94-28.78-100-81.52-10.23-59.47,34.78-106.13,107.62-111.56,91.06-6.78,159.5-82.61,156.93-173.83-2.53-89.36-70-154.61-169.11-163.58C459.41,339,428.38,315,415.57,271.81,403,229.3,417.73,196,450.75,169,467.29,155.49,486.36,150.77,503.21,152.28Z"/><path class="cls-1" d="M219,152.07c63.2-.14,97.49,30.16,104,82.35,14.62,117.48,52.46,157.72,170.54,181.35C549.94,427.06,593,473,590.87,519.61c-2.5,54.85-42.27,88.22-109.9,92.2-76.86,4.53-140.07,62.62-150.85,137.87-3.05,21.27-5.65,43.05-12.42,63.26-15.14,45.14-54.75,66.27-106.9,59.89-43.66-5.34-74.74-38.47-78.86-84-4.2-46.41,21.19-86.56,64.4-100.55,10.83-3.51,22.44-6.65,33.66-6.57,128.65.85,197.7-129.9,155.21-234.88-26.18-64.71-86.4-99.3-160.42-104.22C147,337.4,109.38,263.16,146.61,195,165.23,160.91,195.21,153.06,219,152.07Z"/></svg>